<?xml version="1.0" encoding="UTF-8"?>
<svg width="147px" height="56px" viewBox="0 0 147 56" version="1.1" xmlns="http://www.w3.org/2000/svg" xmlns:xlink="http://www.w3.org/1999/xlink">
    <!-- Generator: Sketch 52.5 (67469) - http://www.bohemiancoding.com/sketch -->
    <title>Group 38</title>
    <desc>Created with Sketch.</desc>
    <defs>
        <polygon id="path-1" points="0 55.8161579 146.75756 55.8161579 146.75756 0 0 0"></polygon>
    </defs>
    <g id="Symbols" stroke="none" stroke-width="1" fill="none" fill-rule="evenodd">
        <g id="导航（英文）" transform="translate(-647.000000, -43.000000)">
            <g id="Group-11">
                <g id="导航">
                    <g id="Group-38" transform="translate(647.000000, 43.000000)">
                        <path d="M137.19638,52.6304579 C137.167857,52.2963 137.137141,51.9621421 137.111544,51.6276158 C137.086313,51.2975105 137.05779,50.9692474 136.80182,50.7198263 C136.655917,50.5776158 136.471984,50.5801947 136.346559,50.7345632 C136.316574,50.6774579 136.287686,50.6262474 136.262454,50.5731947 C136.240149,50.5264053 136.221499,50.4774053 136.200656,50.4284053 C135.741738,50.5518263 135.756731,50.9600368 135.689081,51.3096684 C135.587059,51.8376158 135.500395,52.3688789 135.408977,52.8990368 C135.376432,53.0876684 135.354857,53.2781421 135.317193,53.4656684 C135.290865,53.5975632 135.246253,53.7257737 135.203104,53.8794053 C134.69226,53.1602474 134.535022,47.0599316 135.340962,45.9093526 C135.44591,45.9823 135.555246,46.0489842 135.652149,46.1307737 C135.692007,46.1643 135.724186,46.2298789 135.726746,46.2825632 C135.73735,46.4995632 135.739178,46.7173 135.73735,46.9350368 C135.734059,47.3432474 135.702246,47.7525632 135.726014,48.1593 C135.75088,48.5881421 135.66129,48.9477211 135.332186,49.2420895 C135.223216,49.3397211 135.147156,49.4823 135.335843,49.6101421 C135.375335,49.6370368 135.357783,49.7379842 135.391059,49.7880895 C135.449566,49.8761421 135.515022,50.0017737 135.599126,50.0224053 C135.836813,50.0817211 136.086566,50.1266684 136.329738,50.1207737 C136.731977,50.1108263 137.139335,50.0894579 137.532432,50.0113526 C137.929917,49.9325105 138.178574,49.5766158 138.506216,49.3633 C138.606044,49.2980895 138.697462,49.2199842 138.793999,49.1492474 C138.935514,49.0453526 139.078126,48.9429316 139.220372,48.8401421 C139.188925,48.8213526 139.157477,48.8025632 139.125663,48.7841421 C139.132977,48.7104579 139.112865,48.6120895 139.152357,48.5675105 C139.318372,48.3803526 139.406499,47.9157737 139.309962,47.6961947 C139.277783,47.6232474 139.282537,47.5340895 139.270835,47.4523 C139.293141,47.4504579 139.315447,47.4482474 139.338119,47.4464053 C139.356402,47.5694579 139.374686,47.6921421 139.393335,47.8151947 C139.446357,47.2176158 139.394432,46.6487737 138.921619,46.2133 C138.701119,46.0099316 138.499268,45.7612474 138.240372,45.6319316 C137.910537,45.4668789 137.524022,45.4219316 137.175902,45.2881947 C136.682611,45.0988263 136.201387,45.2240895 135.675551,45.3228263 C135.877768,45.1861421 136.026962,45.0527737 136.200656,44.9768789 C136.410551,44.8847737 136.641656,44.8413 136.863619,44.7775632 C136.880074,44.7727737 136.900551,44.7790368 136.914813,44.7720368 C137.839596,44.3096684 138.803872,44.7351947 139.745111,44.6441947 C139.933798,44.6261421 140.124678,44.6088263 140.313731,44.6173 C140.504611,44.6254053 140.693663,44.6751421 140.885275,44.6906158 C141.10541,44.7086684 141.329201,44.6928263 141.547507,44.7226684 C141.718641,44.7462474 141.883193,44.8166158 142.051037,44.8659842 C142.047014,44.8891947 142.043357,44.9127737 142.039701,44.9359842 C141.946454,44.9359842 141.852111,44.9455632 141.760328,44.9341421 C141.355163,44.8833 141.173059,45.0266158 141.112357,45.4296684 C141.097731,45.5250895 141.048365,45.6311947 140.981813,45.6997211 C140.809581,45.8765632 140.696589,46.0585632 140.706096,46.3256684 C140.711216,46.4579316 140.599686,46.5909316 140.556537,46.7287211 C140.362365,47.3476684 140.188305,47.9736158 139.976947,48.5866684 C139.882604,48.8611421 139.717686,49.1109316 139.594089,49.3533526 C139.502671,49.3533526 139.395895,49.3290368 139.378708,49.3581421 C139.337753,49.4270368 139.328977,49.5213526 139.326417,49.6057211 C139.317275,49.8938263 139.52132,49.9354579 139.739626,49.9538789 C140.009492,49.9763526 140.280089,49.9966158 140.477186,49.7523526 C140.502051,49.7214053 140.513753,49.6771947 140.52326,49.6374053 C140.568604,49.4543 140.611022,49.2704579 140.654171,49.0869842 C140.717066,48.8191421 140.935738,48.7638789 141.156604,48.6876158 C141.549335,48.5524053 141.952671,48.5991947 142.350887,48.5951421 C142.450716,48.5940368 142.551641,48.7130368 142.606492,48.7480368 C142.650007,48.9200895 142.686574,49.0527211 142.716193,49.1871947 C142.758977,49.3784053 142.816022,49.5692474 142.829917,49.7626684 C142.841619,49.9251421 142.872335,50.0073 143.054805,49.9874053 C143.161947,49.9756158 143.273843,50.0010368 143.383178,50.0143 C143.580275,50.0378789 143.766768,50.0397211 143.903529,49.8216158 C143.863671,50.5160895 143.823813,51.2105632 143.788708,51.8243526 C143.604044,51.5896684 143.369283,51.3192474 143.168895,51.0256158 C143.066507,50.8756684 143.025186,50.6837211 142.926454,50.4368789 C142.682917,50.4206684 142.350156,50.4044579 142.018492,50.3742474 C141.818104,50.3561947 141.65538,50.2773526 141.657574,50.0021421 C141.516059,50.1454579 141.393925,50.2692474 141.237417,50.4276684 C140.911604,50.3444053 140.650149,50.5426158 140.446469,50.8366158 C140.211708,51.1751947 139.945865,51.5034579 139.777656,51.8751947 C139.479999,52.5320895 139.634678,53.1598789 140.044596,53.7327737 C140.059589,53.7534053 140.091402,53.7707211 140.092865,53.7913526 C140.124678,54.1995632 140.527649,54.4412474 140.595663,54.7790895 C140.675014,55.1729316 140.96426,55.0819316 141.119671,55.0988789 C141.504723,55.1405105 141.914641,55.1243 142.290186,55.0318263 C142.623678,54.9500368 142.92682,54.7385632 143.237275,54.5727737 C143.284081,54.5480895 143.303462,54.4637211 143.326865,54.4033 C143.451925,54.0809316 143.574425,53.7574579 143.697656,53.4343526 C143.737514,53.4450368 143.777738,53.4560895 143.817596,53.4671421 C143.752872,53.8967211 143.689977,54.3263 143.621231,54.7551421 C143.615014,54.7923526 143.576984,54.8361947 143.54188,54.8557211 C143.055902,55.1239316 142.695716,55.6231421 142.036044,55.5748789 C141.649529,55.5465105 141.245462,55.7384579 140.862969,55.6983 C140.083723,55.6161421 139.330805,55.8441947 138.563626,55.8132474 C137.969775,55.7893 137.368977,55.7708789 136.787925,55.6607211 C136.394096,55.5859316 136.02879,55.3564053 135.58194,55.1670368 C135.892029,55.1121421 135.951999,54.9894579 135.917992,54.7463 C135.891663,54.5584053 135.970283,54.3531947 136.013066,54.1579316 C136.134469,53.6049316 136.261357,53.0530368 136.384589,52.5059316 C136.476372,52.8091421 136.573275,53.1410895 136.678223,53.4708263 C136.782805,53.7987211 136.869835,54.1358263 137.012813,54.4464053 C137.13129,54.7043 137.27244,54.6722474 137.504275,54.5064579 C137.729529,54.3454579 137.79535,54.1675105 137.827895,53.8985632 C137.880551,53.4678789 138.019872,53.0482474 138.178208,52.6113 C138.279499,53.0180368 138.377865,53.4258789 138.484275,53.8311421 C138.518649,53.9615632 138.573134,54.0868263 138.622499,54.2131947 C138.637857,54.2526158 138.675887,54.2843 138.687223,54.3240895 C138.760723,54.5834579 138.823984,54.8461421 138.902604,55.1040368 C138.950872,55.2620895 139.016693,55.3099842 139.204649,55.2138263 C139.601037,55.0111947 139.753156,54.6995105 139.74182,54.2776684 C139.740723,54.2260895 139.73341,54.1498263 139.700499,54.1280895 C139.489507,53.9880895 139.492798,53.7615105 139.436119,53.5504053 C139.359693,53.2656158 139.294604,52.9535632 139.127857,52.7255105 C139.001335,52.5527211 138.967328,52.3983526 138.94941,52.2111947 C138.913208,51.8328263 138.926007,51.4386158 138.580081,51.1527211 C138.692343,51.1144053 138.76182,51.0908263 138.879201,51.0506684 C138.60641,50.7916684 138.440395,50.4619316 138.039619,50.4221421 C137.859343,50.4040895 137.654566,50.6133526 137.649447,50.8520895 C137.63994,51.2706158 137.626044,51.6799316 137.421268,52.0682474 C137.334969,52.2321947 137.348134,52.4499316 137.315954,52.6429842 L137.19638,52.6304579 Z" id="Fill-1" fill="#FF0000"></path>
                        <path d="M142.069466,54.1085263 C141.813131,54.0223158 141.561549,53.9416316 141.313257,53.851 C141.261332,53.8322105 141.205019,53.7857895 141.180884,53.7367895 C141.062772,53.4958421 140.939541,53.2552632 140.846295,53.004 C140.67772,52.5493684 141.006093,51.6297895 141.422593,51.3696842 C141.489877,51.3276842 141.594825,51.2948947 141.663937,51.317 C142.442817,51.5653158 142.990959,51.9201053 143.100295,52.8787368 C143.106511,52.9328947 143.08969,53.0006842 143.059705,53.0463684 C142.84725,53.3742632 142.721825,53.7644211 142.408078,54.0171579 C142.328362,54.0816316 142.19416,54.0772105 142.069466,54.1085263" id="Fill-3" fill="#FF0000"></path>
                        <path d="M136.758561,46.0093789 C137.905673,45.9176421 138.786942,47.0229053 138.4348,48.0869053 C138.424196,48.1196947 138.416516,48.1576421 138.394942,48.1815895 C138.06986,48.5408 137.821203,48.9799579 137.341807,49.1774316 C137.085472,49.2831684 136.89386,49.2662211 136.757464,49.0359579 C136.543912,48.6756421 136.429822,48.3079579 136.677382,47.8761684 C136.802807,47.6569579 136.841569,47.4230105 136.777576,47.1360105 C136.69786,46.7764316 136.758561,46.3851684 136.758561,46.0093789" id="Fill-5" fill="#FF0000"></path>
                        <path d="M143.700252,49.3209684 C143.62529,49.0501789 143.550327,48.7793895 143.465857,48.4736 C143.491819,48.4713895 143.428193,48.4868632 143.423073,48.4758105 C143.342625,48.2945474 143.221588,48.1136526 143.206961,47.9250211 C143.189775,47.6995474 143.141872,47.6225474 142.908573,47.5418632 C142.811304,47.5083368 142.762304,47.3333368 142.690999,47.2224421 C142.755722,47.1815474 142.800334,47.1531789 142.837267,47.1296 C142.778028,46.9822316 142.655894,46.8322842 142.681125,46.7140211 C142.766327,46.3142842 142.499021,46.0184421 142.421499,45.6702842 C142.382737,45.4949158 142.224767,45.3490211 142.138469,45.1802842 C142.109946,45.1246526 142.137006,45.0399158 142.138834,44.9684421 C142.211603,44.9717579 142.309603,44.9459684 142.352387,44.9835474 C142.582028,45.1850737 142.811304,45.3902842 143.013521,45.6183368 C143.178439,45.8051263 143.32617,46.0147579 143.442454,46.2350737 C143.536797,46.4141263 143.598961,46.6204421 143.626752,46.8216 C143.652349,47.0065474 143.605909,47.1896526 143.769364,47.3506526 C143.825312,47.4055474 143.759491,47.5764947 143.765342,47.6936526 C143.787282,48.1224947 143.820193,48.5506 143.838842,48.9798105 C143.843961,49.0896 143.812513,49.2008632 143.797521,49.3113895 C143.765342,49.3143368 143.732797,49.3176526 143.700252,49.3209684" id="Fill-7" fill="#FF0000"></path>
                        <path d="M141.05769,47.6546 C141.292451,47.2364421 141.52063,46.8297053 141.749175,46.4226 C141.774406,46.4266526 141.800003,46.4307053 141.825234,46.4343895 C141.957242,46.8208632 142.089615,47.2069684 142.242466,47.6546 L141.05769,47.6546 Z" id="Fill-9" fill="#FF0000"></path>
                        <path d="M141.147352,50.7350789 C140.557158,51.1679737 140.154919,51.7427105 139.912113,52.4379211 C139.887248,52.4261316 139.862748,52.4143421 139.838248,52.4025526 C139.990367,51.9773947 140.132979,51.5485526 140.303016,51.1307632 C140.33227,51.0596579 140.480367,51.0408684 140.56886,50.9900263 C140.638703,50.9498684 140.698307,50.8923947 140.767785,50.8518684 C140.8848,50.7833421 141.005837,50.7221842 141.125412,50.6580789 C141.132725,50.6835 141.140039,50.7092895 141.147352,50.7350789" id="Fill-11" fill="#FF0000"></path>
                        <path d="M8.12068955,51.6935632 L7.17140597,48.9595105 L7.0562194,48.9595105 L6.08755522,51.6935632 L8.12068955,51.6935632 Z M8.49477164,52.7564579 L5.71347313,52.7564579 L5.08086119,54.5340895 L3.78601791,54.5340895 L6.27953284,47.8288263 L7.96710746,47.8288263 L10.4412418,54.5340895 L9.10836866,54.5340895 L8.49477164,52.7564579 Z" id="Fill-13" fill="#000000"></path>
                        <polygon id="Fill-15" fill="#000000" points="15.6487716 53.4230421 15.6487716 54.5342 11.6596597 54.5342 11.6596597 47.8289368 12.9161075 47.8289368 12.9161075 53.4230421"></polygon>
                        <mask id="mask-2" fill="white">
                            <use xlink:href="#path-1"></use>
                        </mask>
                        <g id="Clip-18"></g>
                        <polygon id="Fill-17" fill="#000000" mask="url(#mask-2)" points="17.0395672 54.5340526 18.2960149 54.5340526 18.2960149 47.8291579 17.0395672 47.8291579"></polygon>
                        <path d="M23.7237888,52.5438421 C23.7237888,51.8482632 23.3976097,51.5874211 22.2567142,51.5874211 L21.50855,51.5874211 L21.50855,53.5002632 L22.2567142,53.5002632 C23.3976097,53.5002632 23.7237888,53.3167895 23.7237888,52.5438421 Z M21.50855,48.853 L21.50855,50.6501579 L22.0552291,50.6501579 C23.1101918,50.6501579 23.5511918,50.4858421 23.5511918,49.742 C23.5511918,48.9498947 23.1196993,48.853 22.0552291,48.853 L21.50855,48.853 Z M24.9893784,52.6016842 C24.9893784,53.8193158 24.4620799,54.5340526 22.5825276,54.5340526 L20.2521022,54.5340526 L20.2521022,47.8291579 L22.3909157,47.8291579 C24.2605948,47.8291579 24.7878933,48.4182632 24.7878933,49.6259474 C24.7878933,50.3218947 24.5293634,50.8048947 23.8195948,51.0174737 L23.8195948,51.0557895 C24.6441843,51.2492105 24.9893784,51.7804737 24.9893784,52.6016842 Z" id="Fill-19" fill="#000000" mask="url(#mask-2)"></path>
                        <path d="M30.3600709,51.6935632 L29.4107873,48.9595105 L29.2956007,48.9595105 L28.3269366,51.6935632 L30.3600709,51.6935632 Z M30.734153,52.7564579 L27.9528545,52.7564579 L27.3202425,54.5340895 L26.0253993,54.5340895 L28.5189142,47.8288263 L30.2064888,47.8288263 L32.6806231,54.5340895 L31.34775,54.5340895 L30.734153,52.7564579 Z" id="Fill-20" fill="#000000" mask="url(#mask-2)"></path>
                        <path d="M37.3704351,52.5438421 C37.3704351,51.8482632 37.044256,51.5874211 35.9033604,51.5874211 L35.1551963,51.5874211 L35.1551963,53.5002632 L35.9033604,53.5002632 C37.044256,53.5002632 37.3704351,53.3167895 37.3704351,52.5438421 Z M35.1551963,48.853 L35.1551963,50.6501579 L35.7018754,50.6501579 C36.7568381,50.6501579 37.1978381,50.4858421 37.1978381,49.742 C37.1978381,48.9498947 36.7663455,48.853 35.7018754,48.853 L35.1551963,48.853 Z M38.6360246,52.6016842 C38.6360246,53.8193158 38.1087261,54.5340526 36.2291739,54.5340526 L33.8987485,54.5340526 L33.8987485,47.8291579 L36.0375619,47.8291579 C37.9076067,47.8291579 38.4345396,48.4182632 38.4345396,49.6259474 C38.4345396,50.3218947 38.1760097,50.8048947 37.466241,51.0174737 L37.466241,51.0557895 C38.2908306,51.2492105 38.6360246,51.7804737 38.6360246,52.6016842 Z" id="Fill-21" fill="#000000" mask="url(#mask-2)"></path>
                        <path d="M44.0066806,51.6935632 L43.057397,48.9595105 L42.9422104,48.9595105 L41.9735463,51.6935632 L44.0066806,51.6935632 Z M44.3807627,52.7564579 L41.5994642,52.7564579 L40.9668522,54.5340895 L39.672009,54.5340895 L42.1655239,47.8288263 L43.8530985,47.8288263 L46.3272328,54.5340895 L44.9943597,54.5340895 L44.3807627,52.7564579 Z" id="Fill-22" fill="#000000" mask="url(#mask-2)"></path>
                        <path d="M54.4885851,51.1816053 C54.4885851,49.3170263 53.7407866,48.9014474 52.4938463,48.9014474 L51.6502418,48.9014474 L51.6502418,53.4422368 L52.4938463,53.4422368 C53.7788164,53.4422368 54.4885851,52.9496579 54.4885851,51.1816053 M55.7830627,51.1816053 C55.7830627,53.7708684 54.4885851,54.5342368 52.5512567,54.5342368 L50.393794,54.5342368 L50.393794,47.8289737 L52.5512567,47.8289737 C54.4885851,47.8289737 55.7830627,48.3893421 55.7830627,51.1816053" id="Fill-23" fill="#000000" mask="url(#mask-2)"></path>
                        <path d="M61.1729164,51.6935632 L60.2236328,48.9595105 L60.1084463,48.9595105 L59.1397821,51.6935632 L61.1729164,51.6935632 Z M61.5469985,52.7564579 L58.7657,52.7564579 L58.1330881,54.5340895 L56.8382448,54.5340895 L59.3317597,47.8288263 L61.0193343,47.8288263 L63.4934687,54.5340895 L62.1605955,54.5340895 L61.5469985,52.7564579 Z" id="Fill-24" fill="#000000" mask="url(#mask-2)"></path>
                        <polygon id="Fill-25" fill="#000000" mask="url(#mask-2)" points="64.7117037 54.5340895 64.7117037 47.8291947 66.6874276 47.8291947 67.9914127 51.7900895 68.0488231 51.7900895 69.3915694 47.8291947 71.3091515 47.8291947 71.3091515 54.5340895 70.0720843 54.5340895 70.0720843 49.0656158 70.0146739 49.0656158 68.6434052 53.1816158 67.3584351 53.1816158 65.9966739 49.0656158 65.9392634 49.0656158 65.9392634 54.5340895"></polygon>
                        <path d="M74.397797,51.1816053 C74.397797,52.9205526 74.6950881,53.5678684 76.0568493,53.5678684 C77.4182448,53.5678684 77.7060284,52.9205526 77.7060284,51.1816053 C77.7060284,49.4713947 77.4182448,48.7758158 76.0568493,48.7758158 C74.6950881,48.7758158 74.397797,49.4713947 74.397797,51.1816053 M73.0839388,51.1816053 C73.0839388,48.4667105 74.1389015,47.7324474 76.0568493,47.7324474 C77.9744313,47.7324474 79.0198866,48.4667105 79.0198866,51.1816053 C79.0198866,53.9060789 77.9744313,54.6307632 76.0568493,54.6307632 C74.1389015,54.6307632 73.0839388,53.9060789 73.0839388,51.1816053" id="Fill-26" fill="#000000" mask="url(#mask-2)"></path>
                        <path d="M87.2577373,51.6935632 L86.3084537,48.9595105 L86.1932672,48.9595105 L85.224603,51.6935632 L87.2577373,51.6935632 Z M87.6318194,52.7564579 L84.8505209,52.7564579 L84.217909,54.5340895 L82.9230657,54.5340895 L85.4165806,47.8288263 L87.1041552,47.8288263 L89.5782896,54.5340895 L88.2454164,54.5340895 L87.6318194,52.7564579 Z" id="Fill-27" fill="#000000" mask="url(#mask-2)"></path>
                        <path d="M93.7693619,54.6306895 C91.8609216,54.6306895 90.614347,53.9833737 90.614347,51.1815316 C90.614347,48.5922684 91.8514142,47.7323737 93.7883769,47.7323737 C94.4213545,47.7323737 94.9106231,47.8097421 95.3132276,47.9449526 L95.3132276,49.0561105 C94.90075,48.9109526 94.4312276,48.8243737 93.8651679,48.8243737 C92.5611828,48.8243737 91.9570933,49.4039 91.9570933,51.1719526 C91.9570933,53.0461105 92.5418022,53.5195316 93.8172649,53.5195316 C94.4023396,53.5195316 94.8817351,53.4425316 95.3900187,53.2586895 L95.3900187,54.3506895 C94.9969216,54.5050579 94.4213545,54.6306895 93.7693619,54.6306895" id="Fill-28" fill="#000000" mask="url(#mask-2)"></path>
                        <path d="M100.559226,51.6935632 L99.6099425,48.9595105 L99.494756,48.9595105 L98.5260918,51.6935632 L100.559226,51.6935632 Z M100.933308,52.7564579 L98.1520097,52.7564579 L97.5193978,54.5340895 L96.2245545,54.5340895 L98.7180694,47.8288263 L100.405644,47.8288263 L102.879778,54.5340895 L101.546905,54.5340895 L100.933308,52.7564579 Z" id="Fill-29" fill="#000000" mask="url(#mask-2)"></path>
                        <path d="M108.192695,51.1816053 C108.192695,49.3170263 107.444896,48.9014474 106.197956,48.9014474 L105.354351,48.9014474 L105.354351,53.4422368 L106.197956,53.4422368 C107.482926,53.4422368 108.192695,52.9496579 108.192695,51.1816053 M109.487172,51.1816053 C109.487172,53.7708684 108.192695,54.5342368 106.255732,54.5342368 L104.097904,54.5342368 L104.097904,47.8289737 L106.255732,47.8289737 C108.192695,47.8289737 109.487172,48.3893421 109.487172,51.1816053" id="Fill-30" fill="#000000" mask="url(#mask-2)"></path>
                        <polygon id="Fill-31" fill="#000000" mask="url(#mask-2)" points="115.385529 53.4230421 115.385529 54.5342 111.271357 54.5342 111.271357 47.8289368 115.212932 47.8289368 115.212932 48.9305158 112.527805 48.9305158 112.527805 50.5534105 115.020954 50.5534105 115.020954 51.6067263 112.527805 51.6067263 112.527805 53.4230421"></polygon>
                        <polygon id="Fill-32" fill="#000000" mask="url(#mask-2)" points="117.025603 54.5340895 117.025603 47.8291947 119.000961 47.8291947 120.305312 51.7900895 120.362722 51.7900895 121.705469 47.8291947 123.623051 47.8291947 123.623051 54.5340895 122.385984 54.5340895 122.385984 49.0656158 122.328573 49.0656158 120.957304 53.1816158 119.672334 53.1816158 118.310573 49.0656158 118.253163 49.0656158 118.253163 54.5340895"></polygon>
                        <polygon id="Fill-33" fill="#000000" mask="url(#mask-2)" points="128.485423 51.7805474 128.485423 54.5341263 127.219834 54.5341263 127.219834 51.7997053 124.831998 47.8288632 126.299072 47.8288632 127.852811 50.6307053 127.910222 50.6307053 129.482975 47.8288632 130.89264 47.8288632"></polygon>
                        <path d="M106.456742,27.4761053 C106.404816,27.4919474 106.352891,27.5074211 106.300966,27.5232632 C106.383242,27.7019474 106.419078,27.9712632 106.557301,28.0401579 C106.833384,28.1775789 106.844719,28.3905263 106.887503,28.6218947 C106.903958,28.7106842 106.945645,28.7950526 106.984406,28.9059474 C107.164682,28.6064211 107.164682,28.6064211 106.456742,27.4761053 Z M77.6118313,39.7732632 C77.4834806,39.718 77.3591522,39.6332632 77.2253164,39.6137368 C76.8523313,39.5595789 76.4727642,39.5463158 76.1008761,39.487 C75.9853239,39.4682105 75.874891,39.3650526 75.7805478,39.2803158 C75.3296746,38.8735789 74.8945254,38.4638947 74.2458239,38.353 C73.9518239,38.3025263 73.7349806,38.0825789 73.7854433,37.7226316 C73.8011672,37.6106316 73.8282269,37.4533158 73.7693537,37.3858947 C73.2859358,36.8325263 73.3788164,36.0838947 73.0851821,35.4631053 C72.9356224,35.1462632 72.9345254,34.7542632 72.8990552,34.3932105 C72.8712642,34.1069474 72.8935701,33.8155263 72.8935701,33.5263158 L72.7619284,33.5082632 C72.6873313,33.6 72.6127343,33.6917368 72.5381373,33.7834737 C72.4975478,33.7808947 72.4569582,33.7786842 72.4163687,33.7761053 C72.346891,33.2547895 72.2777791,32.7334737 72.2086672,32.2117895 C72.2452343,32.2051579 72.2818015,32.1985263 72.3187343,32.1915263 L72.4536672,32.4914211 C72.5001075,32.4899474 72.5469134,32.4884737 72.5937194,32.487 C72.6456448,31.6053684 72.6975701,30.7241053 72.7498612,29.8428421 C72.7919134,29.8351053 72.8339657,29.8273684 72.8760179,29.8196316 C72.9754806,30.2683684 73.0749433,30.7174737 73.174406,31.1662105 C73.1970776,31.1643684 73.2201149,31.1625263 73.2431522,31.1610526 C73.2431522,30.9175263 73.2325478,30.6732632 73.2497343,30.4308421 C73.2548537,30.3626842 73.3305478,30.2687368 73.3952716,30.2462632 C73.4376896,30.2315263 73.518503,30.3236316 73.5656746,30.3564211 C73.6026075,29.6822105 73.6424657,28.9564211 73.6823239,28.2302632 C73.7364433,28.2321053 73.790197,28.2339474 73.8443164,28.2357895 C73.888197,28.8757368 73.9320776,29.5153158 73.9759582,30.1552632 L74.1039433,30.1814211 C74.2008463,29.8583158 74.2970179,29.5348421 74.3939209,29.2117368 L74.471809,29.2021579 C74.5113015,29.3922632 74.550794,29.5827368 74.5902866,29.7728421 C74.6206373,29.7743158 74.6509881,29.7754211 74.6809731,29.7768947 C74.7266821,29.2423158 74.7720254,28.7077368 74.8173687,28.1731579 C74.8608836,28.1738947 74.9040328,28.1746316 74.9475478,28.1757368 L74.9475478,29.3543158 C75.1259955,29.2080526 75.2473985,29.1572105 75.2799433,29.0732105 C75.4624134,28.6016316 75.6982716,28.1337368 75.7794507,27.6426316 C76.0690627,25.8900526 76.3034582,24.1282632 76.5601597,22.3701579 C76.5766149,22.2577895 76.5769806,22.1314211 76.6314657,22.0378421 C77.1755851,21.1075789 77.1225627,20.0693684 77.2344582,19.0532632 C77.3039358,18.4251053 77.5317493,17.8146316 77.6677791,17.192 C77.9453239,15.9231579 78.2089731,14.6517368 78.4777418,13.3814211 C78.5867119,12.8656316 78.6964134,12.3498421 78.7991672,11.8329474 C78.8200104,11.7275789 78.8072119,11.6159474 78.8167194,11.5076316 C78.8412194,11.2346316 78.8693761,10.962 78.9421448,10.6923158 C78.7871,9.98310526 78.8287866,9.29784211 79.251503,8.63173684 C79.1922642,8.56026316 79.1202269,8.47368421 79.0481896,8.38710526 C79.0887791,8.39005263 79.1293687,8.39263158 79.1699582,8.39521053 C79.2185925,8.08684211 79.3143985,7.77663158 79.3041597,7.47010526 C79.2898985,7.03463158 79.3996,6.68131579 79.7429657,6.40389474 C80.0976672,6.11689474 80.1726299,5.75473684 80.0084433,5.31889474 C79.9034955,5.03963158 79.8267045,4.74747368 79.7667343,4.45531579 C79.741503,4.333 79.7916,4.19521053 79.8076896,4.06478947 L79.966391,4.04710526 C80.0523239,4.46452632 80.1386224,4.88194737 80.2249209,5.29936842 C80.280503,5.29936842 80.3360851,5.29936842 80.3916672,5.29936842 C80.4435925,5.012 80.4955179,4.725 80.5507343,4.41847368 C80.6516597,4.58205263 80.7386896,4.72278947 80.8257194,4.86389474 L80.9676,4.81489474 C80.9423687,4.41073684 80.9171373,4.00657895 80.8922716,3.60278947 L80.9891746,3.52652632 C81.1793239,3.73726316 81.3691075,3.94836842 81.581197,4.18342105 C81.6536,4.03715789 81.724906,3.89384211 81.8335104,3.67426316 C81.9574731,3.90857895 82.0503537,4.08468421 82.1450627,4.26410526 C82.4288239,4.04378947 82.4467418,3.91447368 82.2986448,3.26531579 C82.218197,2.91347368 82.1362866,2.56126316 82.1308015,2.184 C82.8610478,3.38173684 83.0193836,4.84473684 84.0048687,5.94152632 C84.3270254,5.92457895 84.473294,5.84242105 84.3259284,5.44378947 C84.2012343,5.10594737 84.2041597,4.72205263 84.1500403,4.35805263 C84.1920925,4.33852632 84.2345104,4.319 84.2765627,4.29910526 C84.4670776,4.58794737 84.6583239,4.87678947 84.888697,5.22568421 C84.9779209,4.93315789 85.0444731,4.71468421 85.1110254,4.49657895 C85.160391,4.48294737 85.2097567,4.46894737 85.2591224,4.45531579 C85.4386672,4.79868421 85.6182119,5.14205263 85.8537045,5.59263158 C85.9718164,5.271 86.0467791,5.06578947 86.1180851,4.87126316 C86.2990925,4.91805263 86.4640104,4.96042105 86.5890701,4.99247368 C87.1993761,5.60368421 87.8221149,6.19831579 88.4057269,6.82831579 C88.6024582,7.04015789 88.7739582,7.32715789 88.8284433,7.60421053 C88.9425328,8.18778947 88.9688612,8.78757895 89.0379731,9.38036842 C89.0507716,9.49126316 89.0657642,9.61910526 89.1286597,9.70457895 C89.4906746,10.1967895 89.6735104,10.7475789 89.6859433,11.3484737 C89.6921597,11.6402632 89.6446224,11.9338947 89.6142716,12.2264211 C89.6011075,12.3527895 89.5396746,12.4806316 89.5513761,12.6029474 C89.7203164,14.4148421 89.8658537,16.2296842 90.0874507,18.0353158 C90.1945925,18.9084737 90.6388836,19.7282105 90.5463687,20.6463158 C90.5310104,20.7955263 90.6611896,20.9591053 90.7599209,21.2044737 C90.8392716,20.8098947 90.8776672,20.5015263 90.966891,20.2082632 C91.0396597,19.9684211 91.1694731,19.7447895 91.2806373,19.5174737 C91.3241522,19.4279474 91.4184955,19.3527895 91.4356821,19.2614211 C91.6203463,18.2626316 91.867906,17.2675263 91.9454284,16.2598947 C91.9969881,15.5912105 92.1940851,15.0146316 92.6080254,14.5452632 C93.1320328,13.9513684 93.3514358,13.2661053 93.4988015,12.5296316 C93.533906,12.3542632 93.6125254,12.1862632 93.635197,12.0101579 C93.6505552,11.886 93.6249582,11.6494737 93.584003,11.6417368 C93.2552642,11.5809474 93.3247418,11.3495789 93.3265701,11.1417895 C93.3269358,11.0990526 93.343391,11.0463684 93.3247418,11.0143158 C92.9894209,10.4366316 93.4421224,10.0741053 93.7057716,9.66515789 C93.8684955,9.41278947 94.004891,9.19910526 93.9387045,8.84652632 C93.8736149,8.498 94.000503,8.11410526 94.0476746,7.70405263 C93.9324881,7.72947368 93.8516746,7.74752632 93.7445328,7.77110526 C93.8527716,7.41926316 93.9551597,7.08657895 94.0579134,6.75352632 C94.0315851,6.73842105 94.004891,6.72331579 93.9789284,6.70821053 C93.8831224,6.776 93.7873164,6.84342105 93.6816373,6.91821053 C93.6673761,6.87915789 93.6344657,6.83642105 93.6443388,6.80878947 C93.7723239,6.454 93.875809,6.08594737 94.0462119,5.75142105 C94.2645179,5.32257895 94.7003985,4.94015789 94.7526896,4.50357895 C94.8550776,3.64957895 95.6043388,3.55452632 96.0310776,3.09510526 C96.0636224,3.11647368 96.0965328,3.13821053 96.1294433,3.15994737 C96.0698388,3.30768421 96.0102343,3.45578947 95.9506299,3.60352632 C95.9714731,3.63557895 95.9919507,3.668 96.0124284,3.70005263 C96.3163015,3.50405263 96.619809,3.30768421 97.0293612,3.04315789 C96.9298985,3.30436842 96.8706597,3.46057895 96.7836299,3.68863158 C97.0268015,3.63742105 97.2048836,3.60021053 97.3142194,3.577 C97.4597567,3.65842105 97.5570254,3.75642105 97.6594134,3.76194737 C98.0057045,3.78147368 98.3582119,3.73431579 98.6997493,3.77742105 C98.9930179,3.81463158 99.2749507,3.94026316 99.5616373,4.02684211 C99.5327493,4.05521053 99.5042269,4.08357895 99.4753388,4.11194737 C99.5298239,4.25489474 99.5729731,4.40373684 99.6413537,4.53968421 C99.7653164,4.78615789 99.8578313,5.07168421 100.047249,5.25663158 C100.411824,5.61215789 100.791391,6.01152632 101.246652,6.19868421 C101.646697,6.363 101.979093,6.49857895 102.154249,6.90126316 C102.205443,7.01915789 102.24969,7.16173684 102.343667,7.23578947 C102.872428,7.65357895 102.86219,8.18815789 102.703122,8.79421053 C102.495055,8.51163158 102.295764,8.24084211 102.096107,7.97042105 C102.052593,7.98663158 102.008712,8.00321053 101.965197,8.01942105 L101.965197,8.99278947 C101.642309,8.652 101.404257,8.40036842 101.099287,8.078 C101.099287,8.36205263 101.048824,8.60373684 101.109525,8.81447368 C101.249578,9.29968421 101.357085,9.79263158 101.893525,10.0877368 C102.078555,10.1894211 102.082943,10.6112632 102.169607,10.8864737 C102.133406,10.9111579 102.096839,10.9354737 102.060637,10.9597895 C102.179481,10.9796842 102.298324,10.9995789 102.46763,11.0275789 C102.277846,10.4108421 102.103421,9.84494737 101.902301,9.19247368 C102.32904,9.56273684 104.007473,15.7787368 103.802331,16.2617368 C103.63266,15.6608421 103.48566,15.1417368 103.339025,14.6226316 L103.24907,14.6311053 C103.232249,14.9855263 103.215063,15.3399474 103.198242,15.6958421 C103.295876,15.7179474 103.455675,15.7256842 103.461891,15.7595789 C103.536854,16.1806842 103.58951,16.6054737 103.648018,17.0291579 C103.608525,17.0431579 103.569033,17.0571579 103.52954,17.0715263 C103.628272,17.1006316 103.727003,17.1297368 103.808182,17.1533158 C103.734682,17.367 103.597921,17.5681579 103.615107,17.7556842 C103.65716,18.2228421 103.743824,18.6903684 103.860839,19.1457368 C104.002354,19.6961579 104.1936,20.2340526 104.369854,20.7984737 C104.698227,20.65 104.845593,20.4864211 104.675921,20.0384211 C104.42507,19.3763684 104.307324,18.6653158 104.133264,17.9748947 C104.179339,17.9590526 104.225779,17.9432105 104.272219,17.9273684 C104.331093,18.0699474 104.400936,18.2088421 104.446279,18.3554737 C104.690548,19.1464737 104.9286,19.9393158 105.168481,20.7317895 C105.176891,20.7594211 105.170675,20.7984737 105.187861,20.8143158 C106.092167,21.6318421 105.99051,22.8321579 106.429682,23.8478947 C105.885563,23.8353684 105.877518,23.9108947 106.31157,24.7604737 C106.362764,24.5998421 106.401525,24.4782632 106.440652,24.3566842 C106.475025,24.3434211 106.509399,24.3301579 106.543772,24.3168947 C106.671391,24.6506842 106.792794,24.9863158 106.92919,25.3160526 C106.982212,25.4446316 107.043279,25.5890526 107.144936,25.6756316 C107.449906,25.935 107.508048,26.229 107.396884,26.6022105 C107.295958,26.9418947 107.2071,27.2944737 107.191742,27.6448421 C107.184794,27.8051053 107.363242,27.9764211 107.466361,28.1370526 C107.544981,28.2597368 107.677719,28.3625263 107.716481,28.4944211 C107.841906,28.9221579 107.825085,29.421 108.516936,29.6181053 C108.202093,29.7153684 108.01816,29.7724737 107.855801,29.8225789 C107.951242,29.9559474 108.068988,30.0963158 108.159675,30.2517895 C108.442704,30.7384737 108.499018,30.7576316 109.032533,30.4488947 C108.867981,30.7907895 108.981704,30.9149474 109.299107,31.0505263 C109.629309,31.1912632 109.886742,31.4985263 110.175622,31.7332105 C110.148928,31.7682105 110.122234,31.8032105 110.09554,31.8382105 C109.911607,31.8606842 109.72804,31.8831579 109.638451,31.8942105 C109.572264,32.2876842 109.483406,32.6218421 109.470242,32.9589474 C109.461831,33.1781579 109.575921,33.3992105 109.614682,33.6228421 C109.740473,34.3427368 109.70354,34.3998421 108.997428,34.6522105 C109.293622,35.0965263 109.480481,35.5419474 109.016809,36.0024737 C108.970369,36.0488947 109.048988,36.2073158 109.050451,36.3141579 C109.052279,36.4666842 109.036921,36.6192105 109.025585,36.8310526 C108.739996,36.7444737 108.503772,36.673 108.349093,36.6258421 C108.26316,36.9342105 108.186734,37.2083158 108.102264,37.5122632 C107.87701,37.3707895 107.691981,37.2547368 107.506951,37.1379474 C107.461607,37.1618947 107.416264,37.1858421 107.370921,37.2097895 C107.423212,37.3648947 107.470749,37.5222105 107.529257,37.6751053 C107.615921,37.9027895 107.758167,38.1116842 107.374212,38.2494737 C107.218436,38.3054737 107.128481,38.5401579 106.962831,38.7516316 C106.825704,38.5604211 106.69516,38.3784211 106.635555,38.2955263 C105.980272,38.759 105.399585,39.1664737 104.824749,39.5824211 C104.778675,39.6159474 104.776481,39.7080526 104.753443,39.7732632 L104.491622,39.7732632 C104.426899,39.7205789 104.369854,39.6498421 104.295622,39.6181579 C103.484928,39.27 103.234443,38.5294737 103.217622,37.7955789 C103.194585,36.7831579 102.617555,36.0260526 102.286622,35.1252632 C102.171436,35.2269474 102.097204,35.2921579 102.023339,35.357 C101.97507,35.3529474 101.926801,35.3488947 101.878533,35.3448421 C101.812346,34.8331053 101.765906,34.3184211 101.672294,33.8118421 C101.614152,33.4968421 101.606839,33.2459474 101.964466,33.1752105 C101.775779,32.6546316 101.600257,32.1708947 101.419249,31.6713158 C101.342093,31.7593684 101.282122,31.8275263 101.2291,31.8879474 C101.100018,31.6956316 100.968376,31.5276316 100.868182,31.3426842 C100.773473,31.1673158 100.711309,30.9742632 100.60819,30.7248421 C100.57601,30.6898421 100.442175,30.6036316 100.399025,30.485 C100.311264,30.2447895 100.245443,29.9902105 100.218018,29.7363684 C100.030794,27.9904211 99.907197,26.2614211 99.2094955,24.5810526 C98.4993612,22.8704737 98.0971224,21.0357368 97.553003,19.2573684 C97.5051,19.1011579 97.4067343,18.9600526 97.3193388,18.7876316 C97.1807493,19.6022105 97.0659284,20.3508421 96.9240478,21.0943158 C96.6673463,22.4408947 96.3821224,23.7823158 96.1349284,25.1307368 C96.0402194,25.6454211 95.9711075,26.1741053 95.9791522,26.6950526 C95.9842716,27.0030526 95.9107716,27.1854211 95.6540701,27.3232105 C95.3578761,27.4827368 95.2496373,27.7295789 95.2273313,28.0637368 C95.205391,28.3978947 95.1424955,28.7442105 95.0174358,29.0540526 C94.7848687,29.6302632 94.7515925,31.605 94.9779433,32.1826842 C95.0931299,32.4759474 95.205391,32.7699474 95.3128985,33.0661579 C95.3231373,33.0937895 95.2913239,33.1365263 95.2719433,33.1917895 C95.1476149,33.1295263 95.0379134,33.0742632 94.9282119,33.019 C94.9402791,33.0547368 94.9527119,33.0901053 94.9647791,33.1254737 C94.7625627,33.2426316 94.5603463,33.3597895 94.3358239,33.4898421 C94.4360179,33.6755263 94.5457194,33.8796316 94.713197,34.1902105 C94.3303388,34.034 94.0612045,33.9242105 93.8593537,33.8420526 C93.9281,34.1132105 94.0030627,34.4079474 94.1160552,34.8526316 C93.7233239,34.7332632 93.4549209,34.6518421 93.1686,34.5648947 C93.1923687,34.6367368 93.2216224,34.6986316 93.2322269,34.7634737 C93.2428313,34.8286842 93.2344209,34.8972105 93.2344209,34.9893158 C93.1543388,34.9893158 93.096197,35.0007368 93.0442716,34.9874737 C92.6160701,34.8791579 92.4299433,35.0147368 92.4248239,35.4439474 C92.4167791,36.0916316 92.1176597,36.3178421 91.4627418,36.1734211 C91.1603313,36.1067368 90.8564582,36.0444737 90.5467343,35.9785263 C90.5284507,36.1958947 90.5156522,36.3447368 90.5039507,36.4884211 C90.0007866,36.4055263 89.9038836,35.7320526 89.3381896,35.7865789 C89.3125925,35.7891579 89.2716373,35.6694211 89.2434806,35.6042105 C89.0950179,35.2615789 88.952406,34.9167368 88.7969955,34.5770526 C88.7713985,34.5210526 88.6982642,34.4786842 88.6379284,34.4466316 C88.3446597,34.2896842 88.0067791,33.6582105 88.0572418,33.3321579 C88.1398836,32.7975789 87.9917866,32.3547368 87.5877194,31.9748947 C87.4710701,31.8658421 87.4257269,31.6606316 87.3924507,31.4907895 C87.2922567,30.9731579 87.2615403,29.0238421 87.1178313,28.5198421 C86.7371672,27.1828421 86.3466299,25.8469474 85.8939284,24.5327895 C85.4408612,23.2171579 85.2020776,21.8429474 84.688309,20.5420526 C84.4283164,19.8833158 84.3515254,19.1542105 84.1844134,18.4586316 C84.1580851,18.3492105 84.0915328,18.2493684 83.9913388,18.0305263 C83.835197,18.4792632 83.396391,18.7062105 83.7174507,19.1516316 C83.758406,19.2083684 83.6852716,19.3398947 83.6772269,19.4375263 C83.6556522,19.7002105 83.6256672,19.9632632 83.6263985,20.2259474 C83.6278612,20.7413684 83.7009955,21.2623158 83.6454134,21.7703684 C83.5905627,22.2721579 83.4746448,22.7319474 83.121406,23.2009474 C82.7330627,23.7174737 82.6259209,24.4834211 82.8314284,25.1819474 C82.9122418,25.4564211 82.8230179,25.6531579 82.7297716,25.9036842 C82.4127343,26.7558421 82.0565701,27.601 82.1885776,28.5596316 C82.2584209,29.0647368 82.1739507,29.5691053 81.8576448,30.0333158 C81.6053313,30.4032105 81.3804433,30.8294737 81.289391,31.2605263 C80.995391,32.6513158 80.768309,34.0553684 80.5167269,35.4546316 C80.4432269,35.8657895 80.3700925,36.2695789 80.6545851,36.652 C80.7383239,36.7647368 80.7781821,36.9732632 80.7335701,37.1025789 C80.6041224,37.4772632 80.4355478,37.8412632 80.2483239,38.1912632 C80.2095627,38.2638421 80.0234358,38.2848421 79.9045925,38.2863158 C79.3736373,38.2922105 78.9066746,38.5865789 78.3804731,38.6079474 C78.3581672,38.6090526 78.3402493,38.6495789 78.3150179,38.6624737 C77.8487866,38.8986316 77.8443985,39.3481053 77.7866224,39.7732632 L77.6118313,39.7732632 Z" id="Fill-34" fill="#000000" mask="url(#mask-2)"></path>
                        <path d="M12.3498649,27.3319789 C12.2961112,27.3253474 12.2419918,27.3187158 12.1878724,27.3120842 C12.0704918,27.6642947 11.9527455,28.0161368 11.8349993,28.3679789 C11.8646187,28.3771895 11.8942381,28.3864 11.9238575,28.3956105 C12.0745142,28.1834 12.2248052,27.9708211 12.3750963,27.7582421 C12.4109321,27.7737158 12.4467679,27.7888211 12.4829694,27.8042947 C12.4383575,27.6469789 12.3941112,27.4892947 12.3498649,27.3319789 Z M25.1856709,11.8726632 C25.1761634,11.8855579 25.166656,11.8984526 25.1571485,11.9113474 C25.2620963,12.2786632 25.3600963,12.6485579 25.4782082,13.0110842 C25.5027082,13.0866105 25.6018052,13.1374526 25.6665291,13.1993474 C25.7126037,13.0950842 25.8255963,12.9550842 25.7930515,12.8928211 C25.60985,12.5424526 25.3919097,12.2105053 25.1856709,11.8726632 Z M24.3186634,11.0418737 C24.3493799,11.0057684 24.3800963,10.9696632 24.4108127,10.9331895 C23.8601112,10.4652947 23.3097754,9.99703158 22.7590739,9.52876842 C22.7294545,9.56450526 22.6998351,9.60024211 22.6702157,9.63597895 C23.2198201,10.1046105 23.769059,10.5732421 24.3186634,11.0418737 Z M20.0099545,9.01482105 C19.9967903,9.04208421 19.9836261,9.06934737 19.9704619,9.09661053 C19.7740963,9.01592632 19.5711485,8.94924211 19.3828276,8.85308421 C17.7387679,8.00976842 15.9751336,7.51903158 14.2038201,7.05629474 C13.9025067,6.97782105 13.5693799,6.96013684 13.26185,6.99992632 C13.1225291,7.01797895 12.9038575,7.24345263 12.9012978,7.37866316 C12.8680216,9.02218947 12.6486187,10.6657158 12.9974694,12.3088737 C13.1324022,12.9440316 13.1455664,13.6219263 13.1068052,14.2736632 C13.0717007,14.8653474 12.798544,15.4238737 13.2845216,15.9919789 C13.7291784,16.5114526 13.8388799,17.2180842 13.8853201,17.8805053 C13.921156,18.3940842 13.8063351,18.9286632 13.6944396,19.4392947 C13.578156,19.9687158 13.3693575,20.4764 13.2300366,21.0017684 C13.1269172,21.3908211 13.0749918,21.7949789 12.7594172,22.1965579 C12.7148052,21.9294526 12.6903052,21.7842947 12.6661709,21.6391368 C12.4727306,21.9703474 12.3253649,22.3022947 12.2646634,22.6500842 C12.1458201,23.3312947 12.0437978,24.0187684 11.9918724,24.7080842 C11.9286112,25.5539789 11.9242231,26.4042947 11.8960664,27.2104 C11.9677381,27.0921368 12.0704918,26.9222947 12.1425291,26.8036632 C12.3048873,26.9668737 12.5436709,27.0947158 12.579141,27.2660316 C12.6581261,27.6447684 12.646059,28.0452421 12.6486187,28.4372421 C12.6500813,28.6306632 12.6018127,28.8248211 12.5762157,29.0186105 C12.602544,29.0241368 12.6288724,29.0296632 12.6552007,29.0355579 C12.701641,28.9522947 12.7477157,28.8690316 12.8552231,28.6763474 C12.9067828,29.0204526 12.940059,29.2429789 12.9777231,29.4949789 C13.0643873,29.4028737 13.1320366,29.3310316 13.1598276,29.3015579 C13.3635067,29.5325579 13.5459769,29.7392421 13.7401485,29.9591895 C13.6033873,29.9846105 13.4779619,30.0078211 13.4037306,30.0214526 C13.5207455,30.1909263 13.6117978,30.3604 13.7386858,30.4956105 C13.8524097,30.6171895 13.9975813,30.7148211 14.142753,30.7977158 C14.465641,30.9822947 14.8506933,31.1009263 14.8503276,31.5378737 C15.0360888,31.5901895 15.3399619,31.6100842 15.3567828,31.6907684 C15.4661187,32.2190842 15.6935664,31.8676105 15.8636037,31.7994526 C15.93235,31.9029789 16.0109694,32.0941895 16.0625291,32.0868211 C16.6307828,32.0076105 17.256447,32.0212421 17.7471784,31.7699789 C18.8061634,31.2280316 19.8106634,30.5696632 20.806753,29.9116632 C21.3106485,29.5789789 21.7574993,29.1538211 22.2112978,28.7481895 C22.3586634,28.6166632 22.5510067,28.4081368 22.5400366,28.2475053 C22.5100515,27.7961895 22.8592679,27.6134526 23.0541709,27.3212947 C23.1514396,27.1757684 23.2468799,27.0269263 23.3222082,26.8692421 C23.5642828,26.3648737 23.8732754,25.9437684 24.4279993,25.7451895 C24.5943799,25.6855053 24.754544,25.5374 24.8605888,25.3881895 C25.2928127,24.7810316 25.7019993,24.1569263 26.1217903,23.5405579 C26.3309545,23.2329263 26.5434097,22.9337684 26.3331485,22.5281368 C26.3002381,22.4647684 26.3576485,22.3302947 26.4066485,22.2492421 C26.9346784,21.3757158 26.8191261,20.4067684 26.8205888,19.4547684 C26.8209545,19.1839789 26.8209545,18.9128211 26.831559,18.6424 C26.8461858,18.2680842 26.8706858,17.8941368 26.8904321,17.5198211 C26.7730515,17.5404526 26.6556709,17.5610842 26.5240291,17.5842947 C26.4998948,17.1263474 26.5371933,16.6890316 26.4435813,16.2830316 C26.2073575,15.2606632 26.0643799,14.1863474 25.21785,13.4251895 C24.9297007,13.1661895 25.0715813,12.7060316 24.89935,12.4654526 C24.4184918,11.7927158 23.8279321,11.1995579 23.2724769,10.5824526 C23.2117754,10.5154 23.0369843,10.4428211 23.0190664,10.4638211 C22.8036858,10.7169263 22.7027604,10.4505579 22.5725813,10.3695053 C21.5980664,9.76271579 20.6334246,9.13897895 19.6494022,8.54876842 C19.3766112,8.38518947 19.0486037,8.31592632 18.7458276,8.20355789 C18.7319321,8.23745263 18.7180366,8.27171579 18.7045067,8.30561053 C19.139656,8.54213684 19.5748052,8.77866316 20.0099545,9.01482105 Z M3.65671642e-05,4.35208421 C0.20993209,4.48287368 0.628626119,4.35318947 0.514536567,4.88776842 C0.553663433,4.87671579 0.592790299,4.86529474 0.632282836,4.85424211 C0.702857463,4.71866316 0.773797761,4.58271579 0.852782836,4.43129474 C0.927014179,4.46224211 1.03086493,4.50534737 1.22905896,4.58824211 C1.10911866,4.43166316 1.04695448,4.35024211 0.990641045,4.27655789 C1.10326791,4.10008421 1.21260373,3.92913684 1.32632761,3.75118947 C1.23235,3.61782105 1.14458881,3.49255789 0.976745522,3.25308421 C1.43822313,3.48887368 1.72125299,3.48997895 2.09423806,3.23650526 C2.43723806,3.00403158 2.96014851,3.05561053 3.39456642,2.94471579 C3.68381269,2.87103158 3.9569694,2.73213684 4.33068582,2.58587368 C4.19794701,2.73471579 4.12883507,2.81208421 4.06008881,2.88945263 C4.07508134,2.91303158 4.09007388,2.93697895 4.10506642,2.96055789 C4.28058881,2.85666316 4.44660373,2.72918947 4.63346194,2.65550526 C4.81885746,2.58255789 4.5566709,2.58071579 4.74682015,2.51734737 C5.32604403,2.3254 5.89868582,2.11245263 6.47754403,1.91903158 C6.91342463,1.77387368 7.35040224,1.62576842 7.79615597,1.51892632 C8.01848433,1.46587368 8.27006642,1.54029474 8.49385746,1.49018947 C8.79736493,1.42203158 9.08697687,1.28976842 9.41461866,1.17371579 C9.41864104,1.20171579 9.42778284,1.26692632 9.44606642,1.39955789 C10.12585,1.28792632 10.8166037,1.15050526 11.5135739,1.06650526 C12.1637381,0.988768421 12.8533948,0.618873684 13.4457828,1.24629474 C13.4691858,1.27097895 13.5295216,1.26729474 13.5719396,1.26545263 C14.1610366,1.23561053 14.758544,1.14829474 15.2821858,1.65561053 C15.2796261,1.61361053 15.2847455,1.74513684 15.2884022,1.74513684 C15.5644843,1.74218947 15.8760366,1.80813684 16.1086037,1.70018947 C16.5667903,1.48797895 16.9935291,1.44745263 17.448059,1.65450526 C17.3917455,2.2344 17.4572007,2.31582105 18.0345963,2.19055789 C18.4818127,2.09366316 18.7780067,2.25466316 19.0654246,2.57703158 C19.1787828,2.70413684 19.4168351,2.81503158 19.5722455,2.78703158 C19.9953276,2.7104 20.3507604,2.83676842 20.6963201,3.03976842 C20.7266709,3.05745263 20.7003425,3.17387368 20.7003425,3.28034737 C20.860141,3.28034737 21.0173799,3.28955789 21.173156,3.27850526 C21.5260291,3.25382105 21.7991858,3.32234737 22.0288276,3.65871579 C22.3345291,4.10708421 22.8570739,4.01055789 23.3799843,4.08608421 C23.3214769,3.87976842 23.2816187,3.73866316 23.2073873,3.47818947 C23.5745216,3.60418947 23.8798575,3.67787368 24.1541112,3.81603158 C24.2861187,3.88234737 24.5958425,3.94497895 24.38485,4.24892632 C24.3702231,4.27029474 24.4433575,4.38155789 24.4971112,4.42024211 C25.0507381,4.81850526 25.5623127,5.36008421 26.1799321,5.55645263 C26.6553052,5.70713684 27.0959396,5.86445263 27.4864769,6.15476842 C27.6283575,6.26013684 27.6930813,6.47234737 27.7929097,6.63592632 C27.7493948,6.67461053 27.7058799,6.71329474 27.6623649,6.75161053 C27.498544,6.65508421 27.3347231,6.55855789 27.1489619,6.44913684 C27.1796784,6.82308421 27.9695291,7.55329474 28.5070664,7.72497895 C28.5216933,7.61629474 28.5352231,7.51350526 28.550947,7.39671579 C28.6032381,7.40703158 28.650044,7.40261053 28.6792978,7.42397895 C28.9158873,7.59382105 29.1491858,7.76771579 29.38285,7.94197895 C29.4175888,7.96776842 29.4815813,8.01050526 29.4760963,8.02597895 C29.2768052,8.61508421 29.7686336,8.59776842 30.0794545,8.74182105 C30.1566112,8.77718947 30.2388873,8.81918947 30.2952007,8.88071579 C30.7694769,9.39908421 31.2499694,9.91192632 31.7015739,10.4498211 C31.8514993,10.6285053 31.9228052,10.8746105 31.9505963,11.1417158 C31.835044,11.0444526 31.7191261,10.9471895 31.5209321,10.7802947 C31.6331933,11.3495053 31.9889918,11.6442421 32.2658052,11.9872421 C32.3352828,12.0734526 32.4365739,12.1475053 32.4716784,12.2462421 C33.3368575,14.6781895 33.8444097,17.1687158 33.6597455,19.7723474 C33.5880739,20.7851368 33.5357828,21.7994 33.4674022,22.8125579 C33.4564321,22.9783474 33.4085291,23.1415579 33.3310067,23.3021895 C33.4853201,21.1362421 33.520059,18.9828211 32.9931261,16.7126105 C32.8307679,16.9332947 32.7283799,17.0699789 32.6300142,17.2088737 C32.6142903,17.2309789 32.6128276,17.2645053 32.6077082,17.2936105 C32.4789918,18.0153474 32.5499321,18.7860842 31.9791187,19.4249263 C32.3173649,19.4249263 32.5897903,19.5041368 32.7525142,19.4028211 C32.9174321,19.3004 32.9744769,19.0192947 33.1708425,18.8280842 C33.1708425,18.9441368 33.1796187,19.0605579 33.1693799,19.1751368 C33.1002679,19.9421895 32.8183351,20.7674526 33.0081187,21.4608211 C33.2399545,22.3085579 33.0509022,23.1014 33.109044,23.9137684 C33.1679172,24.7331368 32.7499545,25.3815579 32.2336261,25.9614526 C32.1579321,26.0465579 31.9334097,25.9964526 31.8569843,26.0815579 C31.5966261,26.3726105 31.3007978,26.6647684 31.147947,27.0144 C30.8682082,27.6543474 30.2820366,27.9214526 29.801544,28.3200842 C29.698059,28.4059263 29.5762903,28.4689263 29.4629321,28.5422421 C29.4903575,28.5997158 29.5177828,28.6568211 29.5452082,28.7142947 C29.7240216,28.6314 29.9328201,28.5842421 30.0761634,28.4597158 C30.4992455,28.0905579 30.8967306,27.6908211 31.3040888,27.3032421 C31.3260291,27.3470842 31.3479694,27.3909263 31.3699097,27.4347684 C31.5659097,27.4627684 31.7692231,27.4671895 31.9560813,27.5250316 C32.1378201,27.5814 32.3133425,27.6786632 32.467656,27.7910316 C32.5016634,27.8160842 32.4713127,28.0224 32.4109769,28.0747158 C32.1191709,28.3281895 31.807253,28.5577158 31.4796112,28.8137684 C31.6218575,28.8012421 31.7403351,28.7905579 31.8588127,28.7802421 L31.9012306,28.8719789 C31.5670067,29.0322421 31.2331485,29.1925053 30.8989246,29.3527684 C30.9117231,29.3848211 30.9248873,29.4168737 30.9376858,29.4492947 C31.1241784,29.3726632 31.3103052,29.2960316 31.4967978,29.2194 C31.1728127,29.8125579 30.6374694,30.0439263 30.0959097,30.3154526 C29.1696634,30.7796632 28.1179918,31.0858211 27.5365739,32.0801895 C27.0597381,32.8958737 26.3752007,33.5078211 25.5948575,34.0088737 C25.2957381,34.2008211 24.9611485,34.3356632 24.6415515,34.4948211 C24.4722455,34.5791895 24.2927007,34.6447684 24.1321709,34.7431368 C23.329156,35.2353474 22.5356485,35.7437684 21.7278799,36.2282421 C21.4419246,36.3999263 21.125253,36.5196632 20.8228425,36.6629789 C20.8382007,36.7027684 20.8539246,36.7425579 20.8692828,36.7823474 C21.7896784,36.4411895 22.7104396,36.1000316 23.6308351,35.7588737 C23.6619172,35.8148737 23.6929993,35.8708737 23.7240813,35.9268737 C23.3350067,36.2024526 22.9715291,36.5321895 22.5499097,36.7399789 C21.9703201,37.0258737 21.3442903,37.2141368 20.7416634,37.4532421 C20.3792828,37.5969263 19.978141,37.6964 19.6742679,37.9248211 C19.1806112,38.2954526 18.6236933,38.3558737 18.0675067,38.3676632 C17.3537157,38.3831368 16.6300515,38.5209263 15.9202828,38.2519789 C15.7202604,38.1760842 15.4460067,38.1926632 15.2379396,38.2634 C13.7310067,38.7762421 12.1706858,38.8867684 10.6004918,38.9508737 C10.2845515,38.9637684 9.96020075,38.9932421 9.65888731,39.0820316 C9.08478284,39.2507684 8.54541716,39.2039789 8.00276045,38.9681895 C7.44547687,38.7265053 6.87905149,38.5076632 6.31920821,38.2799789 C6.29470821,38.4638211 6.27605896,38.6016105 6.25046194,38.7924526 C5.97108881,38.6417684 5.75607388,38.5260842 5.51838731,38.3978737 C5.48913358,38.4741368 5.46207388,38.5448737 5.41709627,38.6616632 C5.09713358,38.4759789 4.77278284,38.3160842 4.4857306,38.1046105 C4.39394701,38.0364526 4.4367306,37.8043474 4.35701418,37.6923474 C3.99207388,37.1809789 3.60592463,36.6854526 3.13859627,36.0668737 C3.50170821,36.2127684 3.82532761,36.2798211 4.07105896,36.4574 C4.36359627,36.6692421 4.62797687,36.6884 4.92819328,36.6180316 L4.97755896,36.4927684 C4.78485,36.3848211 4.59067836,36.2798211 4.40016343,36.1678211 C4.10067836,35.9917158 3.84470821,35.8030842 3.6139694,35.5002421 C3.33898433,35.1395579 2.84496194,34.9505579 2.52902164,34.7420316 C2.44820821,34.4347684 2.38458134,34.1919789 2.31181269,33.9152947 C2.32534254,33.9105053 2.41237239,33.8788211 2.50671567,33.8449263 C2.40542463,33.7480316 2.30705896,33.6533474 2.13336493,33.4864526 C2.35093955,33.5034 2.48294701,33.5509263 2.58058134,33.5115053 C2.68626045,33.4687684 2.81607388,33.3556632 2.83582015,33.2536105 C2.89432761,32.9518737 2.90383507,32.6405579 2.94186493,32.2316105 C3.16053657,32.3554 3.28742463,32.4272421 3.41394701,32.4987158 C3.57520821,32.3576105 3.75475299,32.1999263 3.92954403,32.0470316 C3.7584097,31.8742421 3.58654403,31.6999789 3.41467836,31.5260842 C3.45234254,31.4818737 3.49000672,31.4376632 3.5276709,31.3934526 C3.88237239,31.6111895 4.23707388,31.8285579 4.59177537,32.0462947 C4.62943955,31.9902947 4.66710373,31.9346632 4.70513358,31.8786632 C4.26449925,31.5102421 3.8242306,31.1418211 3.38359627,30.7734 C3.39529776,30.7560842 3.40736493,30.7384 3.41906642,30.7207158 L4.21037985,31.1499263 C4.23195448,31.1230316 4.25279776,31.0961368 4.27437239,31.0692421 C4.20672313,30.9355053 4.13943955,30.8021368 4.04034254,30.6057684 C4.23670821,30.6381895 4.37785746,30.6617684 4.55959627,30.6916105 C4.56873806,30.5494 4.57678284,30.4267158 4.58482761,30.3018211 C4.60603657,30.2915053 4.63455896,30.2642421 4.65503657,30.2697684 C5.04776791,30.3740316 5.26095448,30.2111895 5.34505896,29.8195579 C5.49242463,29.1320842 5.65734254,28.4486632 5.79885746,27.7600842 C5.82335746,27.6425579 5.76850672,27.5084526 5.74620075,27.3537158 C5.83981269,27.3375053 5.93415597,27.3209263 6.02886493,27.3050842 C6.03361866,27.2804 6.04495448,27.2538737 6.04056642,27.2306632 C5.99632015,26.9860316 5.9144097,26.7428737 5.90965597,26.4982421 C5.87857388,24.9155053 5.75058881,23.3364526 5.53886493,21.7739789 C5.18050672,19.1301895 5.35054403,16.5092421 5.65258881,13.8827684 C5.6642903,13.7810842 5.68257388,13.6757158 5.66977537,13.5755053 C5.58384254,12.9071895 5.49535,12.2388737 5.39405896,11.5727684 C5.37687239,11.4600316 5.29130522,11.3579789 5.25839478,11.2931368 C5.30556642,11.1468737 5.44708134,10.9291368 5.39113358,10.8432947 C5.09128284,10.3820316 5.30227537,9.90345263 5.30264104,9.43961053 C5.30300672,9.0454 5.18233507,8.8144 4.81520075,8.65745263 C4.61371567,8.57124211 4.94099179,8.35313684 4.7332903,8.16082105 C4.36542463,8.53808421 3.98476045,8.34982105 3.58471567,8.03555789 C3.66223806,7.90587368 3.7339097,7.78613684 3.81618582,7.64871579 C3.69551418,7.59897895 3.57813358,7.54997895 3.46038731,7.50245263 C3.23111119,7.40997895 3.10641716,7.28655789 3.19527537,6.99808421 C3.28486493,6.70813684 3.15322313,6.58803158 2.84532761,6.6584 C2.34801418,6.77187368 1.85508881,6.80355789 1.3819097,6.46313684 C1.7984097,6.25829474 2.18126791,6.06966316 2.56449179,5.88103158 L2.51622313,5.70492632 L1.48173806,5.78229474 C1.47661866,5.7554 1.47149925,5.72850526 1.46674552,5.70161053 C1.6901709,5.65187368 1.91359627,5.60213684 2.15493955,5.54871579 C1.61045448,5.15671579 1.5237903,5.15855789 0.971260448,5.61945263 C1.21443209,5.77345263 1.4309097,5.91013684 1.70808881,6.08587368 C1.57973806,6.09876842 1.50477537,6.09987368 1.43237239,6.11497895 C0.850223134,6.23803158 0.633745522,6.10061053 0.631917164,5.49087368 C0.630820149,4.99718947 0.286357463,4.79676842 3.65671642e-05,4.52892632 L3.65671642e-05,4.35208421 Z" id="Fill-35" fill="#000000" mask="url(#mask-2)"></path>
                        <path d="M114.113869,19.7330368 C114.04622,19.7632474 113.978571,19.7938263 113.910922,19.8240368 C114.078034,20.1044053 114.24478,20.3844053 114.411892,20.6647737 C114.472959,20.6345632 114.534392,20.6043526 114.595825,20.5737737 C114.435295,20.2937737 114.274399,20.0134053 114.113869,19.7330368 Z M114.735146,23.2492474 C114.431272,22.5311947 114.15775,21.8853526 113.871429,21.2081947 C113.515265,21.5847211 114.112041,23.0875105 114.735146,23.2492474 Z M124.796601,7.35556316 C124.76625,7.31540526 124.735534,7.27524737 124.705183,7.23508947 C124.192146,7.43440526 123.654608,7.5943 123.173019,7.84445789 C122.742623,8.06772105 122.318444,8.36319474 122.504937,8.98251053 C122.753228,8.87161579 122.976653,8.77177368 123.210683,8.66677368 C123.068071,8.58240526 122.962026,8.51977368 122.74116,8.38935263 C123.020168,8.35803684 123.164608,8.36466842 123.290034,8.32266842 C123.482377,8.25819474 123.732862,8.20440526 123.83269,8.06845789 C124.108407,7.69303684 124.084272,7.68161579 124.533683,7.52614211 C124.630586,7.49261579 124.709205,7.41377368 124.796601,7.35556316 Z M114.910668,19.1796684 C115.109228,18.9273 115.11069,18.7150895 114.830586,18.4910895 C114.510989,18.2354053 114.602772,17.9830368 115.019638,17.8706684 C115.14616,17.8364053 115.324608,17.8080368 115.375437,17.7240368 C115.584235,17.3810368 115.79669,17.0303 115.926504,16.6585632 C116.14481,16.0318789 116.217578,15.3521421 116.511944,14.7615632 C116.729153,14.3253526 116.96172,13.9071947 117.128101,13.4448263 C117.241825,13.1301947 117.562884,12.8686158 117.826534,12.6140368 C117.931481,12.5123526 118.130772,12.4928263 118.28728,12.4360895 C118.600295,12.0437211 118.87528,11.5618263 119.088101,11.0578263 C119.160138,10.8861421 119.076034,10.6591947 119.063235,10.4573 C118.86175,10.5501421 118.60578,10.6013526 118.472675,10.7465105 C118.30666,10.9285105 118.267534,11.2026158 118.128213,11.4115105 C117.452817,12.4254053 116.750728,13.4245632 116.081183,14.4417737 C115.727213,14.9800368 115.375802,15.5267737 115.103377,16.1018789 C114.824004,16.6917211 114.655429,17.3246684 114.415183,17.9310895 C114.118257,18.6800895 114.128496,18.7290895 114.910668,19.1796684 Z M132.802981,11.6550368 C132.760198,11.6874579 132.717049,11.7198789 132.674265,11.7519316 C132.749593,11.8956158 132.825287,12.0389316 132.925481,12.2290368 C132.573705,12.1185105 132.304937,12.1284579 132.074929,11.7475105 C131.898675,11.4549842 131.243026,11.3809316 130.784108,11.2645105 C130.442571,11.1783 130.028265,11.2630368 129.727317,11.1245105 C129.151384,10.8592474 128.636884,10.4834579 128.086549,10.1684579 C128.003541,10.1209316 127.865683,10.1489316 127.753422,10.1496684 C127.664929,10.1504053 127.576071,10.1717737 127.488675,10.1677211 C127.290481,10.1585105 127.067787,10.0778263 126.900675,10.1364053 C126.53025,10.2660895 126.134959,10.4083 125.843153,10.6429842 C124.261623,11.9140368 122.816854,13.2856684 122.18022,15.2014579 C122.06869,15.5374579 121.899384,15.8576158 121.752384,16.1833 C121.281399,17.2285105 120.772019,18.2608263 120.353325,19.3233526 C120.185116,19.7507211 120.055668,20.2834579 120.181093,20.6994053 C120.700713,22.4210368 121.162922,24.1585105 122.245675,25.7084579 C122.850496,26.5742474 123.23628,27.5837211 123.615116,28.5626158 C123.869623,29.2206158 124.231272,29.6417211 124.988213,29.8270368 C125.895078,30.0495632 126.820228,30.2253 127.628362,30.7359316 C128.435399,31.2458263 129.344093,31.5074053 130.361026,31.4024053 C130.784474,31.3589316 131.224377,31.4326158 131.655504,31.4694579 C132.308959,31.5254579 132.96022,31.6186684 133.614772,31.6433526 C133.781519,31.6496158 134.002384,31.4889842 134.120862,31.3493526 C134.559668,30.8331947 134.921317,30.2569842 135.398153,29.7750895 C135.770041,29.3989316 136.28125,29.1406684 136.709086,28.8072474 C136.999795,28.5806684 137.252108,28.3658789 137.142772,27.9053526 C137.072929,27.6131947 137.219563,27.1117737 137.458347,26.9680895 C137.732601,26.8026684 137.848884,26.6125632 137.966996,26.3896684 C138.205049,25.9398263 138.419332,25.4796684 138.649705,25.0261421 C138.703093,24.9215105 138.76416,24.7553526 138.849728,24.7387737 C139.509765,24.6109316 139.485265,24.1330895 139.539019,23.6825105 C139.579243,23.3450368 139.860444,23.2345105 140.242571,23.4360368 C140.222093,23.2087211 140.225384,23.0042474 140.181504,22.8086158 C140.039257,22.1749316 139.886041,21.5434579 139.725146,20.9134579 C139.410668,19.6829316 139.094362,18.4531421 138.766354,17.2255632 C138.612407,16.6504579 138.253683,16.2230895 137.63716,15.9884053 C137.498937,15.9360895 137.339504,15.8270368 137.286481,15.7076684 C137.015153,15.0990368 136.45531,14.7611947 135.925451,14.3773 C135.688496,14.2056158 135.552466,13.9197211 135.356466,13.6960895 C135.197034,13.5144579 135.00725,13.3553 134.848183,13.1736684 C134.707399,13.0126684 134.330392,13.0675632 134.385974,12.7083526 C134.400601,12.6125632 134.192534,12.4873 134.088683,12.3775105 C133.965451,12.4814053 133.89122,12.5444053 133.891951,12.5436684 C133.505437,12.2279316 133.154392,11.9416684 132.802981,11.6550368 Z M146.757743,24.3305632 C146.368302,24.3685105 146.316743,24.6260368 146.257138,24.9178263 C146.197899,25.2077737 146.12769,25.5246158 145.951802,25.7611421 C145.39269,26.5141947 144.791526,27.2304053 144.455474,28.1124053 C144.190728,28.8061421 143.801653,29.4600895 143.460481,30.1291421 C143.415138,30.2179316 143.34566,30.3314053 143.257534,30.3619842 C142.532041,30.6147211 142.384675,31.2248263 142.208056,31.7988263 C142.034362,32.3639842 141.90784,32.9424053 141.791556,33.5204579 C141.759377,33.6788789 141.88078,33.8608789 141.858474,34.0237211 C141.808743,34.3836684 141.813862,34.8036684 141.605429,35.0763 C141.418937,35.3194579 140.980131,35.4056684 140.645907,35.5478789 C140.06778,35.7939842 139.487093,36.0356684 138.902019,36.2674053 C138.378011,36.4751947 137.836817,36.6487211 137.322317,36.8745632 C137.082071,36.9799316 136.877295,37.1626684 136.673981,37.3280895 C135.819407,38.0233 134.867563,38.5379842 133.740929,38.7800368 C132.774093,38.9874579 131.82225,39.2534579 130.856877,39.4678789 C130.548981,39.5360368 130.217317,39.5544579 129.899549,39.5404579 C128.248175,39.4671421 126.597899,39.3702474 124.946526,39.2976684 C124.724563,39.2880895 124.496019,39.3628789 124.273325,39.4100368 C123.499198,39.5739842 122.826362,39.3577211 122.197407,38.9601947 C122.047847,38.8658789 121.888049,38.7859316 121.664257,38.7752474 C121.710332,38.8290368 121.756407,38.8831947 121.884757,39.0331421 C121.482519,39.0099316 121.164384,39.0033 120.849541,38.9705105 C119.683414,38.8478263 118.927937,38.1312474 118.260586,37.3594053 C117.73475,36.7511421 117.317153,36.0618263 116.882369,35.3920368 C116.791317,35.2516684 116.818377,35.0365105 116.831541,34.8581947 C116.833735,34.8254053 117.029369,34.8040368 117.015474,34.8077211 C117.13578,35.1536684 117.187705,35.4480368 117.333608,35.6963526 C117.940623,36.7283 118.733399,37.5963 120.068466,38.0667737 C119.333832,37.0101421 118.644541,36.0168789 117.952325,35.0258263 C117.891989,34.9392474 117.828362,34.8453 117.740966,34.7867211 C116.517063,33.9621947 115.864705,32.7552474 115.180534,31.5715105 C115.090944,31.4164053 115.060593,31.2325632 114.967713,30.9580895 C115.216004,31.0439316 115.334481,31.0851947 115.455519,31.1271947 C115.465392,31.0947737 115.487698,31.0641947 115.479653,31.0435632 C115.236481,30.4242474 115.008668,29.7990368 114.732586,29.1918789 C114.660549,29.0345632 114.425056,28.9454053 114.286832,28.8061421 C114.072183,28.5902474 113.868869,28.3640368 113.674698,28.1319316 C113.111198,27.4588263 112.580608,26.7890368 112.350966,25.9232474 C111.972496,24.4978263 111.368041,23.1166158 111.077332,21.6794053 C110.880601,20.7078789 111.055757,19.6726158 111.072578,18.6660895 C111.075504,18.4723 111.206049,18.2611947 110.868168,18.1690895 C110.806735,18.1525105 110.768705,17.9285105 110.791377,17.8117211 C110.853175,17.4941421 110.939108,17.1791421 111.042228,16.8704053 C111.15266,16.5403 111.306243,16.2223526 111.419235,15.8926158 C111.858041,14.6108789 112.409108,13.3777737 113.172996,12.2249842 C113.672869,11.4711947 114.118989,10.6871947 114.610451,9.92824737 C114.758549,9.70019474 114.851429,9.39587895 115.332653,9.54103684 C115.531944,9.60145789 115.854101,9.33508947 116.113728,9.20577368 C116.272429,9.12656316 116.417601,9.02487895 116.568989,8.93351053 C116.612504,8.97182632 116.656384,9.01014211 116.700265,9.04845789 C116.439175,9.36419474 116.176623,9.67919474 115.917362,9.99677368 C115.747325,10.2053 115.577287,10.4141947 115.416757,10.6286158 C115.23575,10.8699316 115.08034,11.1281947 114.887265,11.3599316 C114.362892,11.9880895 113.98369,12.5679842 114.542437,13.3280368 C114.43822,13.3663526 114.345705,13.4105632 114.24734,13.4352474 C113.691884,13.5730368 113.53684,14.0033526 113.837056,14.4436158 C113.955534,14.6175105 114.023183,14.8768789 113.981862,15.0739842 C113.898123,15.4737211 113.801951,15.9025632 113.572675,16.2404053 C112.798183,17.3806684 112.687019,18.6115632 112.83731,19.8969842 C112.868392,20.1615105 112.896183,20.4267737 112.925437,20.6916684 L113.078653,20.6835632 C113.078653,20.2259842 113.012832,19.7584579 113.096937,19.3145105 C113.185063,18.8491947 113.341571,18.4034053 113.648735,17.9723526 C114.128862,17.2992474 114.603138,16.5719842 114.472959,15.6888789 C114.463451,15.6244053 114.490511,15.5352474 114.536951,15.4862474 C116.073869,13.8644579 117.074713,11.9247211 118.320922,10.1308789 C118.483646,9.89656316 118.67928,9.68140526 118.80434,9.52593158 C118.753511,9.14866842 118.710362,8.82961579 118.667213,8.51056316 C118.715116,8.49545789 118.762653,8.47998421 118.81019,8.46451053 C118.932325,8.71982632 119.054459,8.97551053 119.177325,9.23266842 C119.397093,9.17372105 119.58066,9.12435263 119.824198,9.05877368 C119.791287,9.28572105 119.769713,9.43456316 119.748138,9.58340526 C120.949004,8.58240526 121.564063,7.25093158 122.320638,5.91540526 C122.409131,6.18877368 122.481168,6.41056316 122.583922,6.72777368 C123.114511,6.37151053 123.611459,6.06314211 124.074034,5.71608947 C124.27881,5.56282632 124.184832,5.37898421 123.936907,5.3403 C123.735787,5.30861579 123.518578,5.32445789 123.314534,5.35393158 C122.84684,5.42135263 122.372563,5.47845789 121.921325,5.60187895 C121.624034,5.6833 121.315041,5.82772105 121.094175,6.02261579 C120.446937,6.59256316 119.848332,7.20819474 119.213892,7.79066842 C119.090295,7.90377368 118.882959,7.93656316 118.727914,8.02608947 C118.610899,8.09351053 118.500832,8.18156316 118.413437,8.27956316 C118.152713,8.57135263 117.904422,8.87308947 117.651377,9.17114211 C117.611153,9.14977368 117.571295,9.12877368 117.531071,9.10740526 C117.607496,8.96887895 117.660153,8.81193158 117.765466,8.69514211 C118.051056,8.37682632 118.375407,8.08687895 118.647832,7.76045789 C118.731205,7.66061579 118.696832,7.47787895 118.716213,7.33308947 C118.569213,7.34340526 118.382354,7.30435263 118.282892,7.37287895 C117.981578,7.57993158 117.709153,7.82419474 117.434899,8.06293158 C117.154063,8.30682632 116.884563,8.56140526 116.61031,8.81156316 C116.579228,8.78577368 116.548511,8.76035263 116.517795,8.73493158 C116.597511,8.59272105 116.676862,8.45051053 116.752922,8.31456316 C116.267675,8.67524737 115.787549,9.03261579 115.307422,9.38961579 C115.263541,9.36235263 115.21966,9.33508947 115.17578,9.30782632 C115.364101,8.82961579 115.727578,8.4273 115.980989,7.97708947 C116.314481,7.38466842 117.094825,7.80282632 117.527414,7.37766842 C117.409302,7.35519474 117.298869,7.33419474 117.185877,7.31245789 C117.343116,7.10098421 117.479877,6.88177368 117.653937,6.69203684 C117.867489,6.45956316 118.073728,6.19245789 118.49681,6.31256316 C118.565922,6.33172105 118.69281,6.23777368 118.767407,6.17182632 C119.054459,5.91724737 119.331272,5.65235263 119.56969,5.31561579 C119.263989,5.46003684 118.958653,5.60445789 118.652951,5.74887895 C118.630646,5.72308947 118.60834,5.6973 118.586034,5.67151053 C118.635765,5.59045789 118.669407,5.49466842 118.738153,5.43056316 C119.187563,5.01387895 119.588705,4.52203684 120.117466,4.21845789 C120.533966,3.97935263 121.206437,4.09466842 121.59222,3.83566842 C122.077101,3.51035263 122.530168,3.48566842 123.058563,3.51293158 C123.328063,3.52656316 123.60122,3.45840526 123.872183,3.46098421 C124.12669,3.46319474 124.380832,3.50998421 124.634974,3.53687895 C124.508086,3.77598421 124.421422,3.93882632 124.31684,4.13666842 C125.038675,4.13961579 125.021489,4.11419474 125.065369,3.56893158 C125.097549,3.16624737 125.259175,2.77277368 125.360466,2.37414211 C125.382041,2.2883 125.378384,2.19582632 125.408735,2.1133 C125.484429,1.90845789 125.572556,1.7073 125.655563,1.50503684 C125.917019,1.65940526 126.178474,1.81414211 126.439929,1.96851053 C126.408847,2.01898421 126.377765,2.06982632 126.346683,2.1203 C126.210653,2.07645789 126.074257,2.03261579 125.780989,1.93793158 C125.934205,2.16119474 125.997832,2.31372105 126.117041,2.40361579 C126.183959,2.45335263 126.422743,2.43382632 126.44834,2.38519474 C126.565354,2.16524737 126.633735,1.92393158 126.748556,1.61187895 C127.312056,1.30645789 127.106914,0.481194737 127.687966,-0.000331578947 C128.179429,0.645510526 127.783041,1.34108947 127.947959,2.02045789 C128.093131,2.0993 128.307049,2.21608947 128.610556,2.38114211 C128.83069,2.31335263 129.058504,2.37524737 129.344825,2.6383 C129.729877,2.99161579 130.166489,3.44956316 130.878086,3.15298421 C131.03825,3.08593158 131.281787,3.19056316 131.487295,3.21119474 C132.504228,3.31287895 133.520063,3.44551053 134.539922,3.49193158 C134.816735,3.50445789 135.124996,3.27824737 135.38828,3.11945789 C135.712631,2.92345789 135.934593,2.87777368 136.156922,3.25172105 C136.33866,3.55787895 136.602675,3.56672105 136.829026,3.1493 C137.036362,3.55972105 137.309884,3.76751053 137.760026,3.57224737 C137.811586,3.54977368 137.911414,3.54535263 137.94469,3.57482632 C138.450049,4.01877368 138.67128,3.54572105 139.016108,3.27087895 C139.177004,3.68461579 139.345944,4.07145789 139.46369,4.47119474 C139.481974,4.53235263 139.279757,4.6823 139.151772,4.73866842 C138.899825,4.84919474 138.849362,4.9623 138.956869,5.21761579 C139.092534,5.53961579 139.10131,5.90582632 139.23222,6.23003684 C139.328026,6.46693158 139.534265,6.66551053 139.688944,6.88287895 C139.792063,7.02803684 139.978556,7.17687895 139.975996,7.32166842 C139.966854,7.77556316 140.279504,7.99145789 140.603854,8.24898421 C141.036078,8.59235263 141.414183,8.99282632 141.821541,9.36345789 C142.36822,9.86119474 142.933183,10.3423526 143.463041,10.8537211 C143.651728,11.0357211 143.767646,11.2829316 143.904407,11.5065632 C143.966571,11.6078789 143.969131,11.7493526 144.049944,11.8293 C144.929019,12.6995105 145.067243,13.8357211 145.375869,14.9089316 C145.752146,16.2157211 146.130981,17.5217737 146.476541,18.8351947 C146.614765,19.3605632 146.66669,19.9047211 146.757743,20.4400368 L146.757743,21.9431947 C146.630854,22.4869842 146.502504,23.0300368 146.377078,23.5741947 C146.311989,23.8582474 146.47581,23.9654579 146.757743,23.9768789 L146.757743,24.3305632 Z" id="Fill-36" fill="#000000" mask="url(#mask-2)"></path>
                        <path d="M44.040359,12.4279474 C43.9675903,12.7617368 43.8948216,13.0955263 43.822053,13.4289474 C44.3435007,13.1699474 44.1690754,12.7952632 44.040359,12.4279474 Z M60.2070679,17.0155263 C60.290441,16.9635789 60.3738142,16.9116316 60.4571873,16.8596842 C60.1364933,16.4441053 59.8154336,16.0281579 59.4947396,15.6125789 C59.430747,15.6494211 59.3671201,15.6862632 59.3031276,15.7231053 C59.604441,16.1541579 59.9057545,16.5848421 60.2070679,17.0155263 Z M65.3604784,26.6449474 C65.0394187,26.4010526 64.8872993,26.0038947 64.3461052,25.8900526 C64.4177769,26.0341053 64.4492246,26.1018947 64.4850604,26.1682105 C64.527844,26.2477895 64.595859,26.3222105 64.6152396,26.4058421 C64.7417619,26.9514737 64.7549261,26.9584737 65.3604784,26.6449474 Z M46.1586948,21.9987895 C46.5975007,21.9512632 46.9799933,21.9133158 47.3613888,21.868 C48.0089933,21.7906316 48.6562321,21.7103158 49.3027396,21.6277895 C49.58065,21.5924211 49.8687993,21.4837368 50.1320828,21.5213158 C50.8615978,21.6259474 51.5633216,21.7677895 52.3089261,21.5194737 C52.6343739,21.4107895 53.0442918,21.5010526 53.4161799,21.5010526 C53.4256873,21.5356842 53.4348291,21.5703158 53.4443366,21.6049474 C53.2724709,21.6952105 53.1002396,21.7851053 52.8208664,21.9313684 C53.2600381,21.9825789 53.5917022,22.0216316 54.0305082,22.0728421 C53.8132993,21.903 53.7021351,21.8160526 53.5672022,21.7103158 C53.963956,21.4384211 54.2919634,21.2468421 54.7249187,21.5456316 C55.1352022,21.8289474 55.4449261,21.6988947 55.6416575,21.3452105 C55.5813216,21.0932105 55.5052619,20.8692105 55.4771052,20.6407895 C55.4065306,20.0623684 55.3710604,19.4806316 55.2960978,18.9025789 C55.2207694,18.3241579 54.9527321,17.8337895 54.5881575,17.3290526 C54.1489858,16.7211579 53.9284858,15.9828421 53.6586201,15.2876316 C53.2827097,14.3197895 52.9488515,13.3390526 52.5879336,12.3391579 C52.2957619,12.4983158 52.0057843,12.6117895 51.7805306,12.7893684 C51.4602022,13.0413684 51.1643739,13.3250526 50.9021873,13.6253158 C50.7080157,13.8474737 50.5142097,14.1031579 50.4407097,14.3698947 C50.0710157,15.7113158 49.5718739,16.9908421 48.5443366,18.0681053 C48.0503142,18.5861053 47.4089261,19.0127368 47.2421799,19.7444211 C47.2056127,19.9039474 46.9500082,20.0155789 46.8264112,20.1692105 C46.5302172,20.5383684 46.2523067,20.9193158 45.9674485,21.2951053 C46.005844,21.3179474 46.0449709,21.3404211 46.0837321,21.3628947 C46.2632769,21.2674737 46.4428216,21.1720526 46.6223664,21.0762632 C46.6410157,21.0994737 46.6600306,21.1230526 46.6790455,21.1462632 C46.514859,21.4148421 46.3510381,21.6837895 46.1586948,21.9987895 Z M64.4631201,23.695 C63.7902843,23.5866842 63.9072993,22.61 63.0903888,22.6726316 C63.4703216,23.2842105 63.8531799,23.8998421 64.2356724,24.5158421 C64.1895978,24.5434737 64.1435231,24.5707368 64.0974485,24.5983684 C63.9917694,24.5578421 63.886456,24.5169474 63.7208067,24.4528421 C63.8455007,24.7700526 63.9467918,25.0290526 64.0506425,25.2932105 C64.5845231,25.0312632 65.0796425,25.2033158 65.3560903,25.7327368 C65.4394634,25.8918947 65.4917545,26.0643158 65.5517246,26.2323158 C65.802941,26.9367368 65.6467993,27.1161579 64.7878366,27.0719474 C65.0536799,27.2384737 65.3005082,27.3847368 65.5370978,27.5431579 C65.7981873,27.7181579 66.092553,27.7701053 66.2706351,27.5173684 C66.3320679,27.4300526 66.1075455,27.1821053 66.0069858,27.0107895 C65.9857769,26.9746842 65.9338515,26.9529474 65.8128142,26.8623158 C66.0036948,26.8457368 66.1898216,26.7937895 66.2179784,26.8324737 C66.4545679,27.1555789 66.7727022,27.4761053 66.850956,27.8342105 C66.9540754,28.3054211 66.6900604,28.4483684 66.1514261,28.3496316 C65.9941873,28.7338947 65.9941873,28.7338947 67.1222843,28.6583684 C66.8121948,28.7987368 66.5017396,28.9391053 66.0845082,29.1277368 C66.3280455,29.2485789 66.5408664,29.3539474 66.6483739,29.4073684 C66.7913515,29.7470526 66.9226276,30.0270526 67.0275754,30.3144211 C67.1731127,30.7137895 67.3047545,31.1175789 67.4316425,31.5217368 C67.6038739,32.0721579 67.7625754,32.6255263 67.9362694,33.1752105 C67.956747,33.2396842 68.0265903,33.327 68.0902172,33.3398947 C68.6774858,33.4588947 68.7030828,33.915 68.8091276,34.2988947 C69.0563216,35.1948947 69.2706052,36.0986316 69.4929336,37.0001579 C69.5134112,37.0823158 69.5346201,37.1898947 69.4936649,37.2547368 C69.2205082,37.6850526 68.9466201,38.1168421 68.6347022,38.5250526 C68.5495007,38.6366842 68.3403366,38.6930526 68.1754187,38.7339474 C67.8207172,38.8223684 67.4576052,38.8842632 67.0582918,38.9653158 C67.0070978,38.8739474 66.9058067,38.6937895 66.7701425,38.4524737 C66.6875007,38.9163158 66.5547619,39.2243158 66.0537918,38.8168421 C66.0322172,38.7995263 65.9857769,38.7833158 65.9634709,38.7917895 C65.3359784,39.0349474 64.9959037,38.4469474 64.4934709,38.4911579 C64.1405978,38.5423684 63.789553,38.6175263 63.4344858,38.6388947 C62.9521649,38.6676316 62.4592396,38.4193158 61.9783813,38.7022632 C61.9081724,38.7438947 61.7191201,38.6698421 61.6108813,38.6116316 C61.2163216,38.4001579 60.9618142,37.7775263 61.0280007,37.3707895 C61.0634709,37.1523158 60.9826575,36.9205789 60.9760754,36.6943684 C60.972053,36.5587895 60.9859485,36.4151053 61.0353142,36.2883684 C61.1157619,36.0805789 61.2316799,35.8838421 61.3479634,35.6517368 C61.2254634,35.5622105 61.1022321,35.4723158 61.0784634,35.455 C60.724859,34.4245263 60.4008739,33.4802632 60.0834709,32.5536842 C60.0703067,32.6284737 60.0509261,32.7401053 60.0315455,32.8513684 L59.9353739,32.8749474 L58.9868216,30.4043158 C59.0241201,30.3858947 59.0617843,30.3674737 59.0990828,30.3494211 C59.2025679,30.422 59.306053,30.4949474 59.4453739,30.5929474 L59.4453739,30.0683158 C59.4874261,30.0506316 59.529844,30.0325789 59.5718963,30.0145263 L60.2450978,31.0114737 C60.2926351,30.9886316 60.3401724,30.9657895 60.3877097,30.9429474 C60.0710381,30.4120526 59.7543664,29.8815263 59.4066127,29.2986842 C59.3173888,29.3889474 59.2676575,29.4773684 59.2281649,29.4736842 C58.8621276,29.4405263 58.4825604,29.4324211 58.1395604,29.3303684 C57.9746425,29.2813684 57.7062396,29.1888947 57.7786425,28.868 C57.8327619,28.6285263 57.6949037,28.3547895 57.6477321,28.1215789 C56.3975007,28.4185263 55.168844,28.6469474 53.895941,28.5364211 C53.6622769,28.5161579 53.4476276,28.3621579 53.2135978,28.3017368 C52.8632843,28.2111053 52.4800604,28.0390526 52.152053,28.0939474 C51.1621799,28.2597368 50.1975381,28.5371579 49.2135157,28.7346316 C48.4232993,28.8934211 47.618456,28.9936316 46.8227545,29.1328947 C46.6135903,29.1693684 46.3857769,29.2183684 46.2175679,29.3252105 C45.8164261,29.5786842 45.4346649,29.7194211 44.9241873,29.5521579 C44.5599784,29.4331579 44.2473291,29.5322632 44.0337769,29.8999474 C43.3975082,30.9956316 42.8680157,32.1454737 41.958956,33.1088947 C41.7746575,33.3037895 41.761859,33.6257895 41.6708067,33.8895789 C41.5665903,34.1916842 41.4360455,34.4893684 41.3691276,34.7977368 C41.3285381,34.9852632 41.3347545,35.2070526 41.4100828,35.3835263 C41.5673216,35.7523158 41.7841649,36.1012105 41.934456,36.3808421 C41.7505231,36.5691053 41.6068142,36.7098421 41.4707843,36.8564737 C41.033441,37.3273158 40.6483888,37.8390526 39.8717022,37.9392632 C39.5744112,37.9775789 39.2983291,38.1455789 39.0138366,38.2572105 C38.968859,38.2745263 38.9202246,38.3331053 38.8906052,38.3246316 C37.9424187,38.0549474 37.0256799,38.8584737 36.0734709,38.3891053 C36.0464112,38.3758421 36.0080157,38.3806316 35.9751052,38.3773158 C35.1296724,38.2881579 34.2750978,38.2398947 33.4413664,38.0965789 C32.8500754,37.9948947 32.2865754,37.7653684 31.5610828,37.5476316 C31.9512545,37.4223684 32.2127097,37.3383684 32.5151201,37.2407368 C32.1081276,36.9629474 31.7175903,36.6965789 31.327053,36.4302105 C31.353747,36.3882105 31.380441,36.3462105 31.4071351,36.3042105 L32.330456,36.7065263 C32.3692172,36.6630526 32.4079784,36.6199474 32.4463739,36.5768421 C32.2690231,36.4364737 32.0913067,36.2964737 31.8653216,36.1181579 C32.0331649,36.1288421 32.1494485,36.1362105 32.2660978,36.1435789 C31.4828291,35.8009474 30.8688664,35.3496316 30.7010231,34.5085263 C30.9968515,34.8154211 31.2645231,35.0935789 31.5267097,35.3654737 C31.7526948,35.2251053 31.8989634,35.1341053 32.0624187,35.0324211 C31.7815828,34.7638421 31.4733216,34.4687368 31.1654261,34.174 C31.2107694,34.1294211 31.2561127,34.0848421 31.3018216,34.0398947 C31.5815604,34.1990526 31.8620306,34.3578421 32.1567619,34.5254737 C31.941747,33.9039474 32.1765082,33.5222632 32.8358142,33.3642105 C32.8818888,33.6383158 32.82265,34.0266316 33.0029261,34.1592632 C33.2069709,34.3095789 33.6263963,34.2311053 33.8889485,34.2480526 C34.2045231,33.6058947 34.4820679,33.0164211 34.7885007,32.4394737 C34.8524933,32.3186316 35.0115604,32.2243158 35.149053,32.1498947 C35.6587993,31.8746842 35.9524336,31.3003158 35.8310306,30.7797368 C36.9730231,30.0281579 36.9646127,28.7574737 37.5763813,27.8216842 C37.456441,27.7347368 37.2992022,27.6698947 37.303956,27.6164737 C37.332844,27.2963158 37.3412545,26.9603158 37.4622918,26.6633684 C38.1047769,25.0883684 38.8342918,23.5395263 39.4248515,21.9497895 C39.9002246,20.6706316 40.2136052,19.3446842 40.614747,18.0434211 C40.7321276,17.6621053 40.9380007,17.3010526 41.0425828,16.9175263 C41.3921649,15.6328421 42.3856948,14.5522632 42.525747,13.1972105 C42.5465903,12.9960526 42.746247,12.7595263 42.9404187,12.6309474 C43.5097694,12.2540526 43.6216649,11.907 43.2676948,11.3536316 C42.9338366,10.8319474 42.9572396,10.6705789 43.3912918,10.2343684 C43.8812918,9.74178947 44.1665157,9.17884211 44.267441,8.51347368 C44.3149784,8.19994737 44.585941,7.91 44.7749933,7.61894737 C44.8104634,7.56442105 44.9373515,7.53163158 45.0221873,7.53126316 C45.392247,7.53052632 45.7286649,7.504 45.7652321,7.07736842 C45.7685231,7.03831579 45.7988739,6.98305263 45.8347097,6.96684211 C46.514859,6.66289474 46.4322172,6.16294737 46.2175679,5.52484211 C46.4746351,5.67110526 46.6351649,5.76247368 46.7953291,5.85384211 C46.8307993,5.84131579 46.8662694,5.82878947 46.9017396,5.81663158 C46.8033739,5.56021053 46.7050082,5.30378947 46.594941,5.01678947 C46.6867246,5.01273684 46.7693664,5.00905263 46.8414037,5.00573684 C46.7525455,4.50357895 46.6633216,4.00068421 46.5561799,3.39831579 C46.7836276,3.49631579 46.8896724,3.56521053 47.0066873,3.58621053 C47.1375978,3.60942105 47.3328664,3.63668421 47.40015,3.57589474 C47.4762097,3.50663158 47.4619485,3.34010526 47.4509784,3.21852632 C47.4283067,2.968 47.3822321,2.71931579 47.3456649,2.46952632 L48.3132321,2.46952632 C48.3490679,2.38368421 48.4200082,2.21236842 48.5008216,2.01857895 C48.7812918,2.072 49.0445754,2.12210526 49.2307022,2.15784211 C49.3751425,1.75736842 49.4991052,1.41363158 49.6501276,0.994736842 C49.901344,1.19036842 50.0735754,1.32189474 50.2425157,1.45636842 C50.7610381,1.86863158 50.7606724,1.86936842 51.2583515,1.45010526 C51.5296799,1.52047368 51.7808963,1.87452632 52.1238963,1.53189474 C52.1443739,1.51126316 52.401441,1.68847368 52.5568515,1.75884211 C52.7484634,1.84542105 52.9488515,1.91689474 53.1452172,1.99463158 C53.183247,1.80673684 53.2201799,1.61847368 53.2593067,1.43094737 C53.2702769,1.37863158 53.2870978,1.32742105 53.3251276,1.18889474 C53.4362918,1.34731579 53.5094261,1.43573684 53.5642769,1.53226316 C53.742359,1.84652632 54.1552022,1.88115789 54.4287246,1.62657895 C54.5589037,1.505 54.7538067,1.43794737 54.919456,1.34621053 C54.9509037,1.53447368 55.046344,1.73673684 54.9980754,1.90731579 C54.9344485,2.13094737 55.0682843,2.38331579 54.7227246,2.59368421 C54.4429858,2.76389474 54.826941,3.22368421 55.3926351,3.30510526 C55.3107246,3.486 55.2364933,3.65547368 55.1575082,3.82310526 C54.9615082,4.23868421 55.1571425,4.57063158 55.6635978,4.60342105 C55.9835604,4.62442105 56.0310978,4.74784211 56.0420679,4.99615789 C56.0621799,5.46221053 56.2537918,5.873 56.657859,6.18357895 C56.7229485,6.15189474 56.7587843,6.14415789 56.7767022,6.12389474 C56.8867694,5.999 56.9924485,5.87152632 57.099956,5.74478947 C57.1771127,5.89694737 57.2677993,6.04505263 57.3288664,6.20236842 C57.5285231,6.71484211 57.7215978,7.22915789 57.909553,7.74531579 C58.3256873,8.88705263 58.7220754,10.0346842 59.156859,11.1705263 C59.3693142,11.7257368 59.6611201,12.257 59.8980754,12.8052105 C60.3061649,13.7509474 60.70365,14.7003684 61.0941873,15.6516316 C61.1461127,15.7776316 61.1322172,15.9246316 61.1033291,16.0745789 C60.431956,15.2832105 60.5551873,14.0895263 59.3813813,13.4289474 C59.5587321,15.2485789 60.5058216,16.6673684 61.5479858,18.1237368 C61.1632993,17.8971579 60.874053,17.7269474 60.5851724,17.5571053 C60.5365381,17.5946842 60.4875381,17.6322632 60.4389037,17.6698421 C60.6864634,18.0220526 60.9340231,18.3742632 61.2294858,18.7938947 C60.8945306,18.6166842 60.480956,18.6446842 60.5105754,18.1771579 C60.5149634,18.1082632 60.2337619,18.025 60.0798142,17.9457895 C60.4396351,17.6422105 59.9759634,17.5324211 59.8607769,17.3331053 C59.7320604,17.1098421 59.5996873,16.8884211 59.3693142,16.6843158 C59.4896201,17.1452105 59.5364261,17.6341053 59.7444933,18.0611053 C60.2107246,19.0167895 60.7533813,19.9437368 61.2748291,20.8784211 C61.3691724,21.0471579 61.51215,21.1948947 61.6255082,21.343 C62.2442246,20.8983158 61.6178291,20.5147895 61.6719485,20.0380526 C61.8631948,20.2366316 62.0014187,20.3795789 62.1396425,20.5228947 C62.1933963,20.5070526 62.24715,20.4912105 62.3009037,20.475 C62.14915,19.9566316 61.9977619,19.4382632 61.8460082,18.9195263 C61.8639261,18.914 61.881844,18.9084737 61.8997619,18.9025789 C62.2807918,19.7234211 62.661456,20.5446316 63.0874634,21.462 C63.205941,21.2954737 63.2443366,21.2416842 63.3613515,21.077 C63.8100306,21.9630526 64.2250679,22.7827895 64.6401052,23.6028947 L64.4631201,23.695 Z" id="Fill-37" fill="#000000" mask="url(#mask-2)"></path>
                    </g>
                </g>
            </g>
        </g>
    </g>
</svg>